<?xml version="1.0" encoding="UTF-8" standalone="no"?>
<!-- Created with Inkscape (http://www.inkscape.org/) -->

<svg
   width="118.77004mm"
   height="200mm"
   viewBox="0 0 118.77004 200"
   version="1.1"
   id="svg5"
   xml:space="preserve"
   inkscape:version="1.2.1 (ef4d3fba62, 2022-07-19, custom)"
   sodipodi:docname="netlifycms-logo.svg"
   xmlns:inkscape="http://www.inkscape.org/namespaces/inkscape"
   xmlns:sodipodi="http://sodipodi.sourceforge.net/DTD/sodipodi-0.dtd"
   xmlns="http://www.w3.org/2000/svg"
   xmlns:svg="http://www.w3.org/2000/svg"><sodipodi:namedview
     id="namedview7"
     pagecolor="#ffffff"
     bordercolor="#000000"
     borderopacity="0.25"
     inkscape:showpageshadow="2"
     inkscape:pageopacity="0.0"
     inkscape:pagecheckerboard="0"
     inkscape:deskcolor="#d1d1d1"
     inkscape:document-units="mm"
     showgrid="false"
     inkscape:zoom="0.38974818"
     inkscape:cx="341.24598"
     inkscape:cy="212.95802"
     inkscape:window-width="1920"
     inkscape:window-height="1043"
     inkscape:window-x="3840"
     inkscape:window-y="3"
     inkscape:window-maximized="1"
     inkscape:current-layer="layer1" /><defs
     id="defs2"><clipPath
       id="freepik--clip-path--inject-197"><path
         d="m 459.2,387.07 c -4.72,-5.4 -19.52,8.3 -19.52,8.3 4.44,-12.47 15.94,-18.88 18.91,-30.38 2.97,-11.5 -5.57,-17.06 -8.9,-4.21 -0.48,1.84 -1.09,3.72 -1.77,5.6 -1.53,-2.6 -4.65,-2.34 -6.75,-0.1 v 0 c 1.91,-16.77 1.11,-32.84 -4,-32.84 -3.83,0 -5.17,3.47 -5.17,9.86 v -0.07 c -1.47,-4.82 -3.43,-6.32 -6.8,-5.41 -4.15,1.11 -1,16 0.9,29.83 a 14.53,14.53 0 0 0 -2.47,-4.86 c -4.14,-4.39 -11.05,-3 -3.31,14.55 a 73.18,73.18 0 0 1 4.55,14.57 v 0 c 0,0 -8.77,-13.91 -12.1,-26.75 -3.33,-12.84 -11.87,-7.28 -8.9,4.21 2.97,11.49 14.46,17.91 18.91,30.38 0,0 -14.8,-13.69 -19.53,-8.3 -2.66,3 4.08,5.23 7,6.63 a 29.51,29.51 0 0 1 11.44,9.62 h 16.39 a 31.68,31.68 0 0 1 14.13,-14 c 2.92,-1.4 9.66,-3.59 6.99,-6.63 z"
         style="fill:#92e3a9;stroke:#263238;stroke-linecap:round;stroke-linejoin:round"
         id="path1115" /></clipPath><clipPath
       id="freepik--clip-path-2--inject-197"><path
         d="m 92.26,340.29 c 0,0 -6.89,18.65 -3.06,30.45 3.83,11.8 31.24,20.56 37.33,20.56 6.09,0 54.79,-12.18 54.79,-12.18 l 2.44,2.67 7.5,-3.05 -11.81,54.44 c 0,0 -5.71,3.05 0,4.95 5.71,1.9 27.41,1.9 27.79,0 a 19.8,19.8 0 0 0 0,-4.95 l 3.22,-6.09 c 0,0 -0.59,-10.66 0,-12.18 0.59,-1.52 24.95,-52.16 14.67,-64.34 -10.28,-12.18 -71,-2.29 -71,-2.29 l -7.76,-8 z"
         style="fill:#92e3a9;stroke:#263238;stroke-linecap:round;stroke-linejoin:round"
         id="path1118" /></clipPath><clipPath
       id="freepik--clip-path-3--inject-197"><path
         d="m 343,159.46 c -3.88,6.27 -8.81,53.3 -8.81,53.3 l -3.77,1.68 -1.58,4.87 c 0,0 -27.66,11.69 -32.41,13.47 a 34.7,34.7 0 0 1 -10.68,1.73 c 0,0 6.33,4.55 7.12,10 0.79,5.45 -0.79,12.48 -0.79,12.48 0,0 47.62,-16.88 52.53,-18.58 4.91,-1.7 14.08,-28.17 14.08,-28.17 z"
         style="fill:#92e3a9;stroke:#263238;stroke-linecap:round;stroke-linejoin:round"
         id="path1121" /></clipPath><clipPath
       id="freepik--clip-path-4--inject-197"><path
         d="m 352.39,245 -4.34,9.17 c 0,0 -17.9,37 -28.87,79.38 -0.26,1 -5.94,21.08 -1.39,71.05 l -2.59,8.77 2.8,14.49 c 0,0 -4.26,6.16 -4.11,8.17 0,0 10.52,2 14,3.85 2.73,1.47 10.92,9.56 10.92,9.56 2.32,-0.48 2.53,-9.88 2.53,-9.88 0,0 4.87,-83.43 6.25,-87 1.38,-3.57 9.94,-19.09 23.25,-54.56 0,0 0.3,49.55 3.86,62.08 3.16,11.15 -0.58,42.36 -0.58,42.36 l 2.13,34.74 c 0,0 -7.49,7.78 -1.41,9.87 0,0 4.05,-7.81 15.62,-9.58 5.87,-0.9 13.2,9.53 13.2,9.53 2.57,-0.82 -1.1,-13.93 -1.1,-13.93 8.2,-61.84 2.15,-50.65 3.79,-80.87 1,-19.4 6.55,-102.39 0.1,-109.13 z"
         style="fill:#757575;stroke:#263238;stroke-linecap:round;stroke-linejoin:round"
         id="path1124" /></clipPath><clipPath
       id="freepik--clip-path-5--inject-197"><path
         d="m 342.11,170.87 c 0.1,1.54 1.89,4.35 1.89,4.35 v 0 c 1.12,16.6 3.11,41.06 5.37,46.51 3.5,8.42 -4.6,37.32 -4.6,37.32 20.47,8.85 69.67,1 69.67,1 0,0 -7.93,-25.64 -3.71,-43.8 1.64,-7 3.91,-17.44 6.08,-27.55 3.43,-16 6.61,-31.18 6.61,-31.18 0,0 -9.5,-12.91 -40.06,-14 C 352.8,142.43 343,159.46 343,159.46 a 17.42,17.42 0 0 0 -0.91,6"
         style="fill:#92e3a9;stroke:#263238;stroke-linecap:round;stroke-linejoin:round"
         id="path1127" /></clipPath><clipPath
       id="freepik--clip-path-6--inject-197"><path
         d="m 414.44,260.07 c 0,0 -49.2,7.85 -69.67,-1 0,0 8.1,-28.9 4.6,-37.32 -2.26,-5.45 -4.25,-29.91 -5.37,-46.51 v 0 c 0,0 9,-16.54 16.75,-21.45 a 7.74,7.74 0 0 0 7.32,5.6 c 6,0.29 15.15,-9.55 15.15,-9.55 0,0 23.94,18.64 33.59,38.9 -2.17,10.11 -4.44,20.52 -6.08,27.55 -4.22,18.14 3.71,43.78 3.71,43.78 z"
         style="fill:#ffffff;stroke:#263238;stroke-linecap:round;stroke-linejoin:round"
         id="path1130" /></clipPath><clipPath
       id="freepik--clip-path-7--inject-197"><path
         d="m 423.42,157.54 c 6.72,10.28 20.57,52.89 22.15,58.82 1.58,5.93 -6.14,19.79 -16.12,19.59 -9.98,-0.2 -30,-12.47 -30,-12.47 0,0 13.42,-0.66 7.78,-19.72 l 11.21,2.79 c 0,0 -6,-16.15 -8.71,-22 -3.63,-7.91 -6.46,-9.49 -6.72,-22.94"
         style="fill:#92e3a9;stroke:#263238;stroke-linecap:round;stroke-linejoin:round"
         id="path1133" /></clipPath></defs><g
     inkscape:label="Layer 1"
     inkscape:groupmode="layer"
     id="layer1"
     transform="translate(-25.373345,-74.8851)"><g
       id="g1874"
       transform="matrix(0.26458333,0,0,0.26458333,21.092387,64.526663)"><g
         id="freepik--background-simple--inject-197"><path
           d="m 118.44,401.16 c 19.73,26 75.43,23.33 100.77,11 82.26,-40 226,-105.95 244.84,-222.09 8,-49.37 -32.93,-80.21 -50.39,-89.85 C 371.74,77.05 324.15,66.28 276.81,59 227.37,51.36 173.89,47.28 126.5,66.64 c -18,7.33 -35.22,17.37 -47.92,32.25 -12.9,15.11 -21.41,33.86 -25.25,53.3 -6.19,31.36 -1.13,64 8.58,94.49 9.71,30.49 24,59.23 36.71,88.54 8.38,19.09 3.19,44.06 19.82,65.94 z"
           style="fill:#92e3a9"
           id="path1138" /><path
           d="m 118.44,401.16 c 19.73,26 75.43,23.33 100.77,11 82.26,-40 226,-105.95 244.84,-222.09 8,-49.37 -32.93,-80.21 -50.39,-89.85 C 371.74,77.05 324.15,66.28 276.81,59 227.37,51.36 173.89,47.28 126.5,66.64 c -18,7.33 -35.22,17.37 -47.92,32.25 -12.9,15.11 -21.41,33.86 -25.25,53.3 -6.19,31.36 -1.13,64 8.58,94.49 9.71,30.49 24,59.23 36.71,88.54 8.38,19.09 3.19,44.06 19.82,65.94 z"
           style="opacity:0.7;fill:#ffffff"
           id="path1140" /></g><g
         id="freepik--Window--inject-197"><polyline
           points="187.43 39.65 187.43 207.39 16.68 207.39"
           style="fill:none;stroke:#263238;stroke-linecap:round;stroke-linejoin:round"
           id="polyline1143" /><path
           d="m 62.3,195.86 q -19.44,-0.08 -38.88,-0.2"
           style="fill:none;stroke:#263238;stroke-linecap:round;stroke-linejoin:round"
           id="path1145" /><polyline
           points="176.2 50.16 176 196 176 196 76.91 195.91"
           style="fill:none;stroke:#263238;stroke-linecap:round;stroke-linejoin:round"
           id="polyline1147" /><line
           x1="176.2"
           y1="39.650002"
           x2="176.2"
           y2="46.41"
           style="fill:none;stroke:#263238;stroke-linecap:round;stroke-linejoin:round"
           id="line1149" /><line
           x1="46.049999"
           y1="105.98"
           x2="40.91"
           y2="105.98"
           style="fill:none;stroke:#263238;stroke-linecap:round;stroke-linejoin:round"
           id="line1151" /><line
           x1="130.73"
           y1="105.99"
           x2="54.98"
           y2="105.98"
           style="fill:none;stroke:#263238;stroke-linecap:round;stroke-linejoin:round"
           id="line1153" /><path
           d="M 176.2,106 H 138.33"
           style="fill:none;stroke:#263238;stroke-linecap:round;stroke-linejoin:round"
           id="path1155" /><path
           d="m 105.82,113.89 c 0,0 0.18,53.11 0,80.21"
           style="fill:none;stroke:#263238;stroke-linecap:round;stroke-linejoin:round"
           id="path1157" /><line
           x1="105.82"
           y1="57.709999"
           x2="105.82"
           y2="104.71"
           style="fill:none;stroke:#263238;stroke-linecap:round;stroke-linejoin:round"
           id="line1159" /></g><g
         id="freepik--Pictures--inject-197"><polyline
           points="259.72 143.21 229.6 143.21 229.6 98.17"
           style="fill:none;stroke:#263238;stroke-linecap:round;stroke-linejoin:round"
           id="polyline1162" /><polyline
           points="289.84 120.92 289.84 143.21 263.93 143.21"
           style="fill:none;stroke:#263238;stroke-linecap:round;stroke-linejoin:round"
           id="polyline1164" /><polyline
           points="229.6 94.01 289.84 94.01 289.84 117.46"
           style="fill:none;stroke:#263238;stroke-linecap:round;stroke-linejoin:round"
           id="polyline1166" /><polyline
           points="242.84 136.85 236.6 136.85 236.6 100.37 250.66 100.37"
           style="fill:none;stroke:#263238;stroke-linecap:round;stroke-linejoin:round"
           id="polyline1168" /><polyline
           points="282.84 102.82 282.84 136.85 247.71 136.85"
           style="fill:none;stroke:#263238;stroke-linecap:round;stroke-linejoin:round"
           id="polyline1170" /><line
           x1="253.78"
           y1="100.37"
           x2="282.84"
           y2="100.37"
           style="fill:none;stroke:#263238;stroke-linecap:round;stroke-linejoin:round"
           id="line1172" /><polyline
           points="306.13 163.76 299.89 163.76 299.89 142.61"
           style="fill:none;stroke:#263238;stroke-linecap:round;stroke-linejoin:round"
           id="polyline1174" /><polyline
           points="333.43 125.54 346.68 125.54 346.68 163.76 308.9 163.76"
           style="fill:none;stroke:#263238;stroke-linecap:round;stroke-linejoin:round"
           id="polyline1176" /><polyline
           points="299.89 136.85 299.89 125.54 330.79 125.54"
           style="fill:none;stroke:#263238;stroke-linecap:round;stroke-linejoin:round"
           id="polyline1178" /><polyline
           points="308.9 130.48 341.25 130.48 341.25 135.92"
           style="fill:none;stroke:#263238;stroke-linecap:round;stroke-linejoin:round"
           id="polyline1180" /><polyline
           points="315.76 158.82 305.33 158.82 305.33 130.48"
           style="fill:none;stroke:#263238;stroke-linecap:round;stroke-linejoin:round"
           id="polyline1182" /><line
           x1="334.75"
           y1="158.82001"
           x2="318.66"
           y2="158.82001"
           style="fill:none;stroke:#263238;stroke-linecap:round;stroke-linejoin:round"
           id="line1184" /><line
           x1="341.25"
           y1="139.92"
           x2="341.25"
           y2="158.82001"
           style="fill:none;stroke:#263238;stroke-linecap:round;stroke-linejoin:round"
           id="line1186" /><polyline
           points="291.29 155.78 291.29 192.29 258.7 192.29 258.7 183.15"
           style="fill:none;stroke:#263238;stroke-linecap:round;stroke-linejoin:round"
           id="polyline1188" /><polyline
           points="258.7 177.59 258.7 152.39 291.29 152.39"
           style="fill:none;stroke:#263238;stroke-linecap:round;stroke-linejoin:round"
           id="polyline1190" /><polyline
           points="275.93 187.66 262.91 187.66 262.91 161.77"
           style="fill:none;stroke:#263238;stroke-linecap:round;stroke-linejoin:round"
           id="polyline1192" /><polyline
           points="287.08 178.65 287.08 187.66 278.31 187.66"
           style="fill:none;stroke:#263238;stroke-linecap:round;stroke-linejoin:round"
           id="polyline1194" /><polyline
           points="269.47 157.02 287.08 157.02 287.08 171.53"
           style="fill:none;stroke:#263238;stroke-linecap:round;stroke-linejoin:round"
           id="polyline1196" /><line
           x1="262.91"
           y1="157.02"
           x2="266.84"
           y2="157.02"
           style="fill:none;stroke:#263238;stroke-linecap:round;stroke-linejoin:round"
           id="line1198" /></g><g
         id="freepik--Plant--inject-197"><path
           d="m 459.2,387.07 c -4.72,-5.4 -19.52,8.3 -19.52,8.3 4.44,-12.47 15.94,-18.88 18.91,-30.38 2.97,-11.5 -5.57,-17.06 -8.9,-4.21 -0.48,1.84 -1.09,3.72 -1.77,5.6 -1.53,-2.6 -4.65,-2.34 -6.75,-0.1 v 0 c 1.91,-16.77 1.11,-32.84 -4,-32.84 -3.83,0 -5.17,3.47 -5.17,9.86 v -0.07 c -1.47,-4.82 -3.43,-6.32 -6.8,-5.41 -4.15,1.11 -1,16 0.9,29.83 a 14.53,14.53 0 0 0 -2.47,-4.86 c -4.14,-4.39 -11.05,-3 -3.31,14.55 a 73.18,73.18 0 0 1 4.55,14.57 v 0 c 0,0 -8.77,-13.91 -12.1,-26.75 -3.33,-12.84 -11.87,-7.28 -8.9,4.21 2.97,11.49 14.46,17.91 18.91,30.38 0,0 -14.8,-13.69 -19.53,-8.3 -2.66,3 4.08,5.23 7,6.63 a 29.51,29.51 0 0 1 11.44,9.62 h 16.39 a 31.68,31.68 0 0 1 14.13,-14 c 2.92,-1.4 9.66,-3.59 6.99,-6.63 z"
           style="fill:#92e3a9"
           id="path1201" /><g
           clip-path="url(#freepik--clip-path--inject-197)"
           id="g1205"><path
             d="m 459.2,387.07 c -4.72,-5.4 -19.52,8.3 -19.52,8.3 4.44,-12.47 15.94,-18.88 18.91,-30.38 2.97,-11.5 -5.57,-17.06 -8.9,-4.21 -0.48,1.84 -1.09,3.72 -1.77,5.6 -1.53,-2.6 -4.65,-2.34 -6.75,-0.1 v 0 c 1.91,-16.77 1.11,-32.84 -4,-32.84 -3.83,0 -5.17,3.47 -5.17,9.86 v -0.07 c -1.47,-4.82 -3.43,-6.32 -6.8,-5.41 -4.15,1.11 -1,16 0.9,29.83 a 14.53,14.53 0 0 0 -2.47,-4.86 c -4.14,-4.39 -11.05,-3 -3.31,14.55 a 73.18,73.18 0 0 1 4.55,14.57 v 0 c 0,0 -8.77,-13.91 -12.1,-26.75 -3.33,-12.84 -11.87,-7.28 -8.9,4.21 2.97,11.49 14.46,17.91 18.91,30.38 0,0 -14.8,-13.69 -19.53,-8.3 -2.66,3 4.08,5.23 7,6.63 a 29.51,29.51 0 0 1 11.44,9.62 h 16.39 a 31.68,31.68 0 0 1 14.13,-14 c 2.92,-1.4 9.66,-3.59 6.99,-6.63 z"
             style="opacity:0.6;fill:#ffffff"
             id="path1203" /></g><path
           d="m 459.2,387.07 c -4.72,-5.4 -19.52,8.3 -19.52,8.3 4.44,-12.47 15.94,-18.88 18.91,-30.38 2.97,-11.5 -5.57,-17.06 -8.9,-4.21 -0.48,1.84 -1.09,3.72 -1.77,5.6 -1.53,-2.6 -4.65,-2.34 -6.75,-0.1 v 0 c 1.91,-16.77 1.11,-32.84 -4,-32.84 -3.83,0 -5.17,3.47 -5.17,9.86 v -0.07 c -1.47,-4.82 -3.43,-6.32 -6.8,-5.41 -4.15,1.11 -1,16 0.9,29.83 a 14.53,14.53 0 0 0 -2.47,-4.86 c -4.14,-4.39 -11.05,-3 -3.31,14.55 a 73.18,73.18 0 0 1 4.55,14.57 v 0 c 0,0 -8.77,-13.91 -12.1,-26.75 -3.33,-12.84 -11.87,-7.28 -8.9,4.21 2.97,11.49 14.46,17.91 18.91,30.38 0,0 -14.8,-13.69 -19.53,-8.3 -2.66,3 4.08,5.23 7,6.63 a 29.51,29.51 0 0 1 11.44,9.62 h 16.39 a 31.68,31.68 0 0 1 14.13,-14 c 2.92,-1.4 9.66,-3.59 6.99,-6.63 z"
           style="fill:none;stroke:#263238;stroke-linecap:round;stroke-linejoin:round"
           id="path1207" /><path
           d="m 459.2,387.07 c -4.72,-5.4 -19.52,8.3 -19.52,8.3 4.44,-12.47 15.94,-18.88 18.91,-30.38 2.97,-11.5 -5.57,-17.06 -8.9,-4.21 -3.33,12.85 -12.8,27.87 -12.8,27.87 6,-20.68 7.74,-55.18 0.32,-55.18 -5.8,0 -5.92,7.94 -4.26,22 C 434.61,369.53 431,390 431,390 c 0,0 -3.15,-22.75 -7.3,-27.15 -4.15,-4.4 -11.05,-3 -3.31,14.55 4.73,10.74 6.13,22.53 6.5,30.32 h 11.22 a 31.68,31.68 0 0 1 14.13,-14 c 2.89,-1.42 9.63,-3.61 6.96,-6.65 z"
           style="fill:none;stroke:#263238;stroke-linecap:round;stroke-linejoin:round"
           id="path1209" /><path
           d="m 432.34,407.69 c 2.5,-18.06 6.49,-37.09 5.34,-55.82"
           style="fill:none;stroke:#263238;stroke-linecap:round;stroke-linejoin:round"
           id="path1211" /><path
           d="m 424.27,376.49 c 4.2,9.51 5.81,20.9 6.62,31.2"
           style="fill:none;stroke:#263238;stroke-linecap:round;stroke-linejoin:round"
           id="path1213" /><path
           d="m 452.68,368 c 0,0 -9.68,20.33 -18.48,28.14"
           style="fill:none;stroke:#263238;stroke-linecap:round;stroke-linejoin:round"
           id="path1215" /><path
           d="m 452.68,389.91 c 0,0 -16.31,11.35 -20.31,17.78"
           style="fill:none;stroke:#263238;stroke-linecap:round;stroke-linejoin:round"
           id="path1217" /><polygon
           points="408.32,407.69 412.84,456.65 449.22,456.65 453.74,407.69 "
           style="fill:none;stroke:#263238;stroke-linecap:round;stroke-linejoin:round"
           id="polygon1219" /><path
           d="m 447.92,366.38 c -1.53,-2.6 -4.64,-2.34 -6.75,-0.1"
           style="fill:none;stroke:#263238;stroke-linecap:round;stroke-linejoin:round"
           id="path1221" /><path
           d="m 424.86,391.9 c 0,0 -8.77,-13.91 -12.1,-26.75 -3.33,-12.84 -11.87,-7.28 -8.9,4.21 2.97,11.49 14.46,17.91 18.91,30.38 0,0 -14.8,-13.69 -19.53,-8.3 -2.66,3 4.08,5.23 7,6.63 a 29.51,29.51 0 0 1 11.44,9.62 h 16"
           style="fill:none;stroke:#263238;stroke-linecap:round;stroke-linejoin:round"
           id="path1223" /><path
           d="m 432,343.26 c -1.47,-4.82 -3.43,-6.32 -6.8,-5.41 -4.57,1.22 -1.28,13.65 0.42,28.53"
           style="fill:none;stroke:#263238;stroke-linecap:round;stroke-linejoin:round"
           id="path1225" /></g><g
         id="freepik--Floor--inject-197"><line
           x1="47.68"
           y1="456.64999"
           x2="458.32001"
           y2="456.64999"
           style="fill:none;stroke:#263238;stroke-linecap:round;stroke-linejoin:round"
           id="line1228" /></g><g
         id="freepik--character-1--inject-197"><g
           id="freepik--Sofa--inject-197"><path
             d="m 242.92,456.65 v -56.9 0 a 8.67,8.67 0 0 0 8.67,-8.67 v -9.26 a 8.67,8.67 0 0 0 -8.67,-8.67 H 47.68"
             style="fill:none;stroke:#263238;stroke-linecap:round;stroke-linejoin:round"
             id="path1231" /><line
             x1="242.92"
             y1="399.75"
             x2="102.73"
             y2="399.75"
             style="fill:none;stroke:#263238;stroke-linecap:round;stroke-linejoin:round"
             id="line1233" /><line
             x1="97.610001"
             y1="399.75"
             x2="91.190002"
             y2="399.75"
             style="fill:none;stroke:#263238;stroke-linecap:round;stroke-linejoin:round"
             id="line1235" /><line
             x1="72.589996"
             y1="399.75"
             x2="59.540001"
             y2="399.75"
             style="fill:none;stroke:#263238;stroke-linecap:round;stroke-linejoin:round"
             id="line1237" /><path
             d="m 160.44,372.49 -19.8,-97.05 A 38.08,38.08 0 0 0 103.32,245 H 28.68"
             style="fill:none;stroke:#263238;stroke-linecap:round;stroke-linejoin:round"
             id="path1239" /><path
             d="m 84.93,266 c 3.86,6.43 3.75,19.1 3.75,19.1 0,0 6.33,10 4.12,21"
             style="fill:none;stroke:#263238;stroke-linecap:round;stroke-linejoin:round"
             id="path1241" /><path
             d="m 70.56,285.09 c 6.34,-2.23 18.12,0 18.12,0 0,0 10.33,-3 18.33,0"
             style="fill:none;stroke:#263238;stroke-linecap:round;stroke-linejoin:round"
             id="path1243" /><path
             d="m 51.44,317.45 c 3.85,6.43 3.75,19.1 3.75,19.1 0,0 6.33,10 4.12,21"
             style="fill:none;stroke:#263238;stroke-linecap:round;stroke-linejoin:round"
             id="path1245" /><path
             d="m 37.07,336.55 c 6.34,-2.23 18.12,0 18.12,0 0,0 10.33,-3 18.33,0"
             style="fill:none;stroke:#263238;stroke-linecap:round;stroke-linejoin:round"
             id="path1247" /></g><path
           d="m 224.15,399.75 c 0,0 -8.51,17.32 -9.26,18.11 -0.75,0.79 -1.74,11.83 -1.74,11.83 l -1.07,1.91 -9.08,16.4 -5,8.68 h -71.54 l -4.37,-17.09 c -2.74,-1.77 -10.35,-39.81 -10.35,-39.81 0.09,-3.61 -3.83,-7.44 -3.83,-7.44 -23.25,-0.63 -36.08,-19.16 -36.08,-19.16 l 2.94,-0.14 10.75,-0.52 c -3.24,-7.91 -1.75,-37.71 -7.47,-52.21 -3.18,-8 -4.36,-21.48 -3.93,-33.18 0.34,-9.36 5.2,-13.36 7.42,-16.86 5,-7.86 23.63,-9.83 36.57,-7 7.66,1.7 16.28,9.37 22,15.35 l 18.07,93.86 h -2.52 l 0.61,0.64 h 79.06 c 4.28,13.99 -11.18,26.63 -11.18,26.63 z"
           style="opacity:0.2"
           id="path1250" /><path
           d="m 171.26,296.11 c 0,0 34.09,20 41,21 6.91,1 21.41,-17.56 40.86,-49.17 l -1.89,-8.78 -7.72,5.46 c -1.89,6 -15.26,14.61 -23.54,22 a 53.47,53.47 0 0 0 -7.35,7.92 c -4.52,-1.56 -15.21,-10.16 -15.21,-10.16"
           style="fill:#ffffff;stroke:#263238;stroke-linecap:round;stroke-linejoin:round"
           id="path1252" /><path
           d="m 184.71,425.77 c 0,0 -7.8,22.68 -7.46,29.8 0,0 12.7,3.17 19.18,2.38 6.48,-0.79 19.41,0.25 26.26,0.12 6.85,-0.13 7.65,-1.71 7.65,-1.71 0,0 0.53,-2.9 -4,-5.54 -4.53,-2.64 -22.68,-4 -24.26,-17.15 -1.58,-13.15 -17.37,-7.9 -17.37,-7.9 z"
           style="fill:#757575;stroke:#263238;stroke-linecap:round;stroke-linejoin:round"
           id="path1254" /><path
           d="m 92.26,340.29 c 0,0 -6.89,18.65 -3.06,30.45 3.83,11.8 31.24,20.56 37.33,20.56 6.09,0 54.79,-12.18 54.79,-12.18 l 2.44,2.67 7.5,-3.05 -11.81,54.44 c 0,0 -5.71,3.05 0,4.95 5.71,1.9 27.41,1.9 27.79,0 a 19.8,19.8 0 0 0 0,-4.95 l 3.22,-6.09 c 0,0 -0.59,-10.66 0,-12.18 0.59,-1.52 24.95,-52.16 14.67,-64.34 -10.28,-12.18 -71,-2.29 -71,-2.29 l -7.76,-8 z"
           style="fill:#92e3a9"
           id="path1256" /><g
           clip-path="url(#freepik--clip-path-2--inject-197)"
           id="g1276"><path
             d="m 189.76,379.35 -6,2.44 -2.44,-2.67 c 0,0 -48.7,12.18 -54.79,12.18 -6.09,0 -33.53,-8.75 -37.33,-20.56 a 21.06,21.06 0 0 1 -0.69,-2.79 c 4.19,4.14 12.31,11.24 20.84,13.68 0,0 -2.49,-2.61 4.13,-4 6.62,-1.39 26.93,-33.63 26.93,-33.63 l 8.9,-0.7 4.82,5 c 0,0 9.37,-1.53 21.37,-2.64 a 321,321 0 0 0 14.26,33.69 z"
             style="opacity:0.2"
             id="path1258" /><path
             d="m 210.46,414.91 c -0.59,1.52 0,12.18 0,12.18 l -3.22,6.09 a 19.8,19.8 0 0 1 0,4.95 c -0.38,1.9 -22.08,1.9 -27.79,0 -5.71,-1.9 0,-4.95 0,-4.95 l 11.27,-51.93 c 6,11.79 13.3,23.44 21.15,30.54 -0.81,1.8 -1.33,2.91 -1.41,3.12 z"
             style="opacity:0.2"
             id="path1260" /><path
             d="m 191.26,378.74 c 0,0 -3.44,-6.23 -1.53,-10.72"
             style="fill:#92e3a9;stroke:#263238;stroke-linecap:round;stroke-linejoin:round"
             id="path1262" /><path
             d="m 192.83,369.29 a 34,34 0 0 0 -0.26,5.52"
             style="fill:none;stroke:#263238;stroke-linecap:round;stroke-linejoin:round"
             id="path1264" /><path
             d="m 194.39,362.14 a 35.46,35.46 0 0 0 -1.06,4.05"
             style="fill:none;stroke:#263238;stroke-linecap:round;stroke-linejoin:round"
             id="path1266" /><path
             d="m 200.28,387.43 c 0,0 0.32,18.14 10.18,27.48"
             style="fill:none;stroke:#263238;stroke-linecap:round;stroke-linejoin:round"
             id="path1268" /><path
             d="m 196.76,422.19 c 2.67,4 5.94,8.89 10.48,11"
             style="fill:none;stroke:#263238;stroke-linecap:round;stroke-linejoin:round"
             id="path1270" /><path
             d="m 193.47,416.74 c 0.51,0.94 1.05,1.86 1.6,2.78"
             style="fill:none;stroke:#263238;stroke-linecap:round;stroke-linejoin:round"
             id="path1272" /><path
             d="m 89.33,350.93 a 81,81 0 0 1 2.93,-10.64 h 2.37 l 11.19,6.5 c 0,0 2.03,4.9 -16.49,4.14 z"
             style="opacity:0.2"
             id="path1274" /></g><path
           d="m 92.26,340.29 c 0,0 -6.89,18.65 -3.06,30.45 3.83,11.8 31.24,20.56 37.33,20.56 6.09,0 54.79,-12.18 54.79,-12.18 l 2.44,2.67 7.5,-3.05 -11.81,54.44 c 0,0 -5.71,3.05 0,4.95 5.71,1.9 27.41,1.9 27.79,0 a 19.8,19.8 0 0 0 0,-4.95 l 3.22,-6.09 c 0,0 -0.59,-10.66 0,-12.18 0.59,-1.52 24.95,-52.16 14.67,-64.34 -10.28,-12.18 -71,-2.29 -71,-2.29 l -7.76,-8 z"
           style="fill:none;stroke:#263238;stroke-linecap:round;stroke-linejoin:round"
           id="path1278" /><path
           d="m 201.29,437.16 -3.85,15.53 -1.2,4.83 -0.43,1.7 -0.2,0.84 -15.23,-4.45 v 0 L 178.26,455 c 0,0 0.91,-1.25 1.74,-2.31 l -0.34,-2.68 2.53,-1.37 -0.86,-1.61 -0.87,-1.62 1.95,0.48 -0.29,-2.13 v 0 a 10.15,10.15 0 0 1 -0.39,-2.79 v 0 l 2.8,-1.35 v 0 l -1.1,-1.88 v 0 L 183,437.02 h 5 l -0.43,-3.89 z"
           style="fill:#92e3a9"
           id="path1280" /><path
           d="m 197.44,452.69 -1.2,4.83 -0.43,1.7 -0.2,0.84 -15.23,-4.45 v 0 L 178.26,455 c 0,0 0.91,-1.25 1.74,-2.31 l -0.34,-2.68 2.53,-1.37 -0.86,-1.61 1.71,0.16 v 0 l 0.4,0.05 1.52,0.15 v 0 a 1.07,1.07 0 0 0 0.25,0 v 0 l 0.83,0.1 v 0 c 1.17,0.13 2.33,0.28 3.37,0.42 v 0 l 0.64,0.1 v 0 c 0.51,0.08 1,0.15 1.35,0.24 0.35,0.09 0.6,0.12 0.82,0.18 0.53,0.14 1,0.22 1.38,0.29 v 0 c 1.66,0.28 2.41,0.32 3.48,3.11 a 7.32,7.32 0 0 1 0.36,0.86 z"
           style="opacity:0.5"
           id="path1282" /><path
           d="m 196.24,457.52 -0.63,2.54 -15.23,-4.45 -2.12,-0.62 c 0,0 0.91,-1.25 1.74,-2.31 l 0.68,-0.82 v 0 a 13.29,13.29 0 0 1 1,-1 8,8 0 0 1 0.65,-0.57 2.53,2.53 0 0 1 0.89,-0.48 5.44,5.44 0 0 1 2.52,0.33 29.37,29.37 0 0 1 3.32,1.24 c 0,0 0.94,-0.2 2.1,-0.33 h 0.06 a 9.05,9.05 0 0 1 3,0.08 c 1.17,0.29 1.78,4.04 2.02,6.39 z"
           style="opacity:0.2;fill:#ffffff"
           id="path1284" /><path
           d="m 194.16,451.09 a 9.12,9.12 0 0 0 -3,-0.08 v 0 c -1.18,0.13 -2.15,0.34 -2.15,0.34 a 28.52,28.52 0 0 0 -3.32,-1.24 5.41,5.41 0 0 0 -2.52,-0.33 6.51,6.51 0 0 0 -2.5,2.07 15.1,15.1 0 0 1 1.51,-3.22 c 2.49,-4.07 12,-5 11.47,-1.7 a 10.22,10.22 0 0 0 0.51,4.16 z"
           style="fill:#263238"
           id="path1286" /><path
           d="m 185.23,445.26 c 0,0 1.28,2.53 1,3.87 a 2.22,2.22 0 0 1 -1.66,1.63 c 0,0 2.45,1.9 4.63,1.22 2.18,-0.68 2.25,-0.92 2.25,-0.92 0,0 -1.67,-0.14 -1.58,-1.7 a 24.63,24.63 0 0 1 1.52,-5.08 5.87,5.87 0 0 0 -6.16,0.98 z"
           style="fill:#92e3a9"
           id="path1288" /><path
           d="m 185.23,445.26 c 0,0 1.28,2.53 1,3.87 a 2.22,2.22 0 0 1 -1.66,1.63 c 0,0 2.45,1.9 4.63,1.22 2.18,-0.68 2.25,-0.92 2.25,-0.92 0,0 -1.67,-0.14 -1.58,-1.7 a 24.63,24.63 0 0 1 1.52,-5.08 5.87,5.87 0 0 0 -6.16,0.98 z"
           style="opacity:0.4;fill:#ffffff"
           id="path1290" /><path
           d="m 190.54,444.79 v 0.14 a 3.78,3.78 0 0 1 -0.22,1.51 5.74,5.74 0 0 1 -0.86,1.49 c -0.92,1.12 -2,1.31 -2.69,1 a 2.5,2.5 0 0 1 -0.52,-0.35 5.36,5.36 0 0 1 -1,-1.13 v 0 c -0.09,-0.13 -0.14,-0.22 -0.14,-0.22 v 0 a 4.23,4.23 0 0 1 -0.5,-0.72 c -1.09,-1.87 -2.29,-5.72 -0.05,-6.9 v 0 a 2.9,2.9 0 0 1 0.72,-0.25 c 2.68,-0.58 4.66,2.19 5.16,4.68 a 5.78,5.78 0 0 1 0.1,0.81 z"
           style="fill:#ffffff"
           id="path1292" /><path
           d="m 193.69,448.75 a 1.75,1.75 0 0 1 0.12,0.9 v 0 c -0.07,0.26 -0.29,0.42 -0.79,0.3 a 2.42,2.42 0 0 1 -1.56,-1.69 5.86,5.86 0 0 1 -0.27,-1.23 4,4 0 0 0 -0.28,-1.53 v 0 a 3.66,3.66 0 0 0 -0.28,-0.56 l -0.09,-0.15 a 3.71,3.71 0 0 0 -0.87,-0.94 3.52,3.52 0 0 0 -1.49,-0.65 6.25,6.25 0 0 1 -3.29,-2.4 c -1.57,1.49 -0.73,4.23 -0.16,5.59 a 8.26,8.26 0 0 0 0.36,0.79 v 0 a 1.18,1.18 0 0 1 -0.11,0.19 v 0 c -0.76,1.14 -2.78,1.25 -2.78,1.25 a 1.23,1.23 0 0 0 0.8,-1 v 0 a 1.53,1.53 0 0 0 0.06,-0.45 5.7,5.7 0 0 0 -0.51,-2.2 11.85,11.85 0 0 1 -0.42,-1.23 v 0 a 10.15,10.15 0 0 1 -0.39,-2.79 v 0 l 2.8,-1.35 v 0 l -1.1,-1.88 v 0 a 2.74,2.74 0 0 1 1.23,-0.07 5.1,5.1 0 0 1 2.54,-0.65 c 1.62,0 3.81,0.74 5.94,3.78 a 6.78,6.78 0 0 1 0.5,6.24 v 0 a 6.43,6.43 0 0 1 -0.36,0.84 5.69,5.69 0 0 1 0.35,0.79 1.42,1.42 0 0 1 0.05,0.1 z"
           style="fill:#263238"
           id="path1294" /><path
           d="m 201.29,437.16 -3.85,15.53 -1.2,4.83 -0.43,1.7 -0.2,0.84 -15.23,-4.45 v 0 L 178.26,455 c 0,0 0.91,-1.25 1.74,-2.31 l -0.34,-2.68 2.53,-1.37 -0.86,-1.61 -0.87,-1.62 1.95,0.48 -0.29,-2.13 v 0 a 10.15,10.15 0 0 1 -0.39,-2.79 v 0 l 2.8,-1.35 v 0 l -1.1,-1.88 v 0 L 183,437.02 h 5 l -0.43,-3.89 z"
           style="fill:none;stroke:#263238;stroke-miterlimit:10"
           id="path1296" /><path
           d="m 137,437.66 c 0,0 -1.06,6.56 0,7.75 1.06,1.19 3.16,15.17 3.16,15.17 0,0 27.6,4.28 35.82,3.69 11,-0.79 13.57,-3.95 13.57,-3.95 0,0 0.19,-4.22 -10.16,-7.53 -12.77,-4.08 -22.61,-17.72 -22.61,-17.72 z"
           style="fill:#757575;stroke:#263238;stroke-linecap:round;stroke-linejoin:round"
           id="path1298" /><polygon
           points="180.27,384.72 175.96,384.72 173.52,387.42 173.51,387.43 171.76,387.28 169.2,387.07 168.42,387.85 167.14,389.14 165.82,388.35 164.2,390.63 161.7,394.16 160.44,390.46 155.57,376.11 159.33,374.75 177.97,368.02 182.6,382 "
           style="fill:#92e3a9"
           id="polygon1300" /><path
           d="m 167.83,386.82 c 0,0 0.23,0.39 0.59,1 l -1.28,1.29 -1.32,-0.79 -1.62,2.28 -2.5,3.53 -1.26,-3.7 -4.87,-14.35 3.76,-1.36 3,-0.52 a 18.8,18.8 0 0 1 3,4.22 12.49,12.49 0 0 1 1,2.66 c 0.25,1.05 0.48,2 0.68,2.73 v 0 c 0.52,1.98 0.82,3.01 0.82,3.01 z"
           style="opacity:0.5"
           id="path1302" /><path
           d="m 164.2,390.63 -2.5,3.53 -1.26,-3.7 c 0,0 2.32,0.05 3.76,0.17 z"
           style="opacity:0.2;fill:#ffffff"
           id="path1304" /><path
           d="m 170.43,377.6 a 5.6,5.6 0 0 1 -5.89,0.51 c 0,0 -1,4.57 -0.31,5.78 a 4.47,4.47 0 0 0 1.86,1.78 c 0,0 -0.53,-1.5 0.79,-1.8 1.32,-0.3 2,0.18 4.16,-0.18 2.16,-0.36 -0.61,-6.09 -0.61,-6.09 z"
           style="fill:#92e3a9"
           id="path1306" /><path
           d="m 170.43,377.6 a 5.6,5.6 0 0 1 -5.89,0.51 c 0,0 -1,4.57 -0.31,5.78 a 4.47,4.47 0 0 0 1.86,1.78 c 0,0 -0.53,-1.5 0.79,-1.8 1.32,-0.3 2,0.18 4.16,-0.18 2.16,-0.36 -0.61,-6.09 -0.61,-6.09 z"
           style="opacity:0.4;fill:#ffffff"
           id="path1308" /><path
           d="m 179.71,377.36 c 1.88,3.47 -1.14,7.21 -7.19,7.36 -6.05,0.15 -3.55,-6.42 -1.74,-8.23 1.81,-1.81 6.86,-2.95 8.93,0.87 z"
           style="fill:#ffffff"
           id="path1310" /><path
           d="m 178.48,382.12 c 0,0 -3.94,-1.52 -4.92,-5 l -1.2,0.37 c 0,0 0.91,-0.61 0.41,-1.22 -0.5,-0.61 -3.2,0.91 -2.5,1.87 l -1.07,0.25 c 0,0 0.59,-3 5.58,-4.14 4.99,-1.14 7.41,4.67 5.41,7.32 0,0 0.13,2.67 -4.43,2.66 0,0.02 2.36,-0.98 2.72,-2.11 z"
           style="fill:#263238"
           id="path1312" /><path
           d="m 176,384.72 -2.44,2.7 v 0 l -1.75,-0.15 c 1.7,-2.12 4.23,-3.73 5.82,-2.56 z"
           style="fill:#263238"
           id="path1314" /><polygon
           points="180.27,384.72 175.96,384.72 173.52,387.42 173.51,387.43 171.76,387.28 169.2,387.07 168.42,387.85 167.14,389.14 165.82,388.35 164.2,390.63 161.7,394.16 160.44,390.46 155.57,376.11 159.33,374.75 177.97,368.02 182.6,382 "
           style="fill:none;stroke:#263238;stroke-miterlimit:10"
           id="polygon1316" /><path
           d="m 180,266.32 c 0,0 10.13,1.9 16.46,13 6.33,11.1 8.3,8.95 11.24,10.77 2.94,1.82 -11.72,17 -17.12,19.66 l -3.35,-3.57 c 0,0 -8.52,-0.79 -13,-7.91 -4.48,-7.12 5.77,-31.95 5.77,-31.95 z"
           style="fill:#263238"
           id="path1318" /><path
           d="m 187.61,292.7 c -9.31,16.13 -33.23,41.3 -33.23,41.3 0,0 1.49,2.28 -1.82,6.47 a 6.49,6.49 0 0 1 1.82,3.8 c 0.19,2.29 -19.49,13.71 -38.15,10.66 -18.66,-3.05 -26.65,-8.37 -27,-12.18 C 88.88,338.94 108.08,288 121,272.43 a 61.4,61.4 0 0 1 35.26,-11.36 c 14.94,-0.07 26.59,4.86 31.88,12.19"
           style="fill:#263238"
           id="path1320" /><path
           d="m 180.78,262 c -2.05,0.4 -3.81,2.47 -5,4.29 a 21.36,21.36 0 0 0 -1.63,2.95 c 0,0 3,9.89 -6.91,8 -9.91,-1.89 -13.13,-12 -13.13,-12 5.9,-4.38 5.33,-10.23 5.33,-10.23 6.32,-2.21 18.37,3 21.24,5.63 0.78,0.71 0.89,1.23 0.1,1.36 z"
           style="fill:#ffffff;stroke:#263238;stroke-linecap:round;stroke-linejoin:round"
           id="path1322" /><path
           d="m 180.78,262 c -2.05,0.4 -3.81,2.47 -5,4.29 -4.22,-3.23 -4.44,-7.15 -4.44,-7.15 l 9.34,1.49 c 0.78,0.72 0.89,1.24 0.1,1.37 z"
           style="fill:#263238"
           id="path1324" /><path
           d="m 165.74,215.2 a 23.35,23.35 0 0 1 14.75,0 c 8.09,2.67 9.24,15.23 9.24,15.23 l -0.86,-1.13 c 0,0 1.21,4.44 -5.11,5.59 -6.32,1.15 -18.02,-19.69 -18.02,-19.69 z"
           style="fill:#263238"
           id="path1326" /><path
           d="m 161.35,256 c 0,0 -4.5,-5.58 -5.74,-9.5 -5.31,-16.8 -6.24,-27.58 12.8,-31.71 13.45,-2.92 20.36,15.12 20.05,21.64 -0.18,3.68 1.63,7.27 2.54,10.19 1,3.26 -0.92,16 -5.09,17.09 -5.33,1.33 -14.13,-0.51 -15.5,-3.46"
           style="fill:#ffffff;stroke:#263238;stroke-linecap:round;stroke-linejoin:round"
           id="path1328" /><path
           d="m 177.3,241.16 c 0.24,0.88 -0.05,1.73 -0.66,1.89 -0.61,0.16 -1.3,-0.4 -1.54,-1.28 -0.24,-0.88 0.05,-1.73 0.66,-1.9 0.61,-0.17 1.3,0.41 1.54,1.29 z"
           style="fill:#263238"
           id="path1330" /><path
           d="m 186.5,238.11 c 0.24,0.88 -0.05,1.73 -0.66,1.9 -0.61,0.17 -1.3,-0.41 -1.54,-1.29 -0.24,-0.88 0,-1.73 0.66,-1.9 0.66,-0.17 1.3,0.41 1.54,1.29 z"
           style="fill:#263238"
           id="path1332" /><path
           d="m 176.2,236 a 12.74,12.74 0 0 1 -4,3.48"
           style="fill:none;stroke:#263238;stroke-linecap:round;stroke-linejoin:round"
           id="path1334" /><path
           d="m 183.76,232.78 a 28.43,28.43 0 0 1 3.43,1"
           style="fill:none;stroke:#263238;stroke-linecap:round;stroke-linejoin:round"
           id="path1336" /><path
           d="m 183.19,240.39 c 0,0 4.76,4.19 4.95,5 0.19,0.81 -2.66,3.11 -2.66,3.11"
           style="fill:none;stroke:#263238;stroke-linecap:round;stroke-linejoin:round"
           id="path1338" /><path
           d="m 177.16,233.29 1,-5.43 c 0,0 -6.28,8.39 -11.8,11.57 a 35.52,35.52 0 0 0 0.95,7.94 c 0,0 -7.46,-4.18 -7.23,0 0.23,4.18 4.09,7.71 2.74,9.9 -0.46,0.75 -3.5,0.19 -3.5,0.19 0,0 -14.47,-5.94 -12.75,-23.67 1.72,-17.73 16.38,-22.9 23,-22.4 17.62,1.34 14.58,18.61 7.59,21.9 z"
           style="fill:#263238"
           id="path1340" /><path
           d="m 164,246.42 c 0,0 -5.06,-4.27 -5.71,0 -0.65,4.27 6.47,10.28 8.18,8.19 1.71,-2.09 0,-2.48 0,-2.48"
           style="fill:#ffffff;stroke:#263238;stroke-linecap:round;stroke-linejoin:round"
           id="path1342" /><path
           d="m 187.19,251.75 a 10.61,10.61 0 0 1 -7.74,0.95"
           style="fill:none;stroke:#263238;stroke-linecap:round;stroke-linejoin:round"
           id="path1344" /><path
           d="m 116.5,306.15 c 0,0 -6.6,28.55 -5.07,35.41 1.53,6.86 40.81,16.37 46.42,19.54 0,0 0.91,6.73 2.56,8.5 a 28.28,28.28 0 0 0 3.55,3.17 V 376 a 2.11,2.11 0 0 0 -2.06,-0.89 c -1.49,0.13 0.54,3 2.06,3.3 1.52,0.3 3.18,-2.29 3.18,-2.29 a 15.19,15.19 0 0 0 2.92,0.13 c 1,-0.13 1.9,-2.41 1.9,-2.41 0,0 3.17,2.5 3.93,1.74 0.76,-0.76 -0.12,-9.23 0,-10.5 0.12,-1.27 -9.89,-9.64 -11.67,-11 -1.78,-1.36 -32.49,-20.17 -32.49,-20.17 0,0 5.46,-16.63 6.73,-24.88 1.27,-8.25 -21.96,-2.88 -21.96,-2.88 z"
           style="fill:#ffffff;stroke:#263238;stroke-linecap:round;stroke-linejoin:round"
           id="path1346" /><line
           x1="171.96001"
           y1="373.79001"
           x2="173.50999"
           y2="367.88"
           style="fill:none;stroke:#263238;stroke-linecap:round;stroke-linejoin:round"
           id="line1348" /><line
           x1="167.14"
           y1="376.07001"
           x2="168.49001"
           y2="372.48999"
           style="fill:none;stroke:#263238;stroke-linecap:round;stroke-linejoin:round"
           id="line1350" /><line
           x1="172.73"
           y1="370.82999"
           x2="174.03"
           y2="373.14999"
           style="fill:none;stroke:#263238;stroke-linecap:round;stroke-linejoin:round"
           id="line1352" /><path
           d="m 169,376.07 c 1.32,-0.94 2.24,-5.24 2.24,-5.24"
           style="fill:none;stroke:#263238;stroke-linecap:round;stroke-linejoin:round"
           id="path1354" /><path
           d="m 128.81,270.24 c 0,0 -10.66,9.89 -10.28,17.13 0.38,7.24 -4.53,20.89 -4.53,20.89 l 2.29,2.33 c 0,0 15.23,0.76 22.46,5 0,0 3.18,2 2.28,-5.33 a 15,15 0 0 1 4.83,-10.41 c 2.67,-2.36 2.41,-15.86 2.41,-15.86"
           style="fill:#263238"
           id="path1356" /><path
           d="m 110.54,375.69 c 1.52,7.24 7.23,17.36 9.52,21.55 2.29,4.19 11.8,37.33 11.8,37.33 0,0 -0.38,6.09 8.37,7.61 8.75,1.52 25.35,-4.19 20.93,-6.85 C 156.74,432.67 152,402 152,402 c 0,0 2.33,-4.18 -1.93,-10.35 -4.26,-6.17 -4.6,-41.31 -12.87,-43.71 -14.47,-4.19 -31.37,4.83 -31.37,4.83 0,0 -4.78,1.5 -6.36,5.85"
           style="fill:#92e3a9;stroke:#263238;stroke-linecap:round;stroke-linejoin:round"
           id="path1358" /><path
           d="m 114,308.26 c -1.77,-3.55 1.85,-5.22 2.69,-8.7 0.84,-3.48 -1,-11.29 3.45,-22.06"
           style="fill:none;stroke:#ffffff;stroke-linecap:round;stroke-linejoin:round"
           id="path1360" /><path
           d="m 181.32,302.17 c 0,0 9.23,-10.14 8.41,-20.53"
           style="fill:none;stroke:#ffffff;stroke-linecap:round;stroke-linejoin:round"
           id="path1362" /><path
           d="m 138.68,314.67 c 0,0 2.63,0.09 2.47,-2.18 -0.16,-2.27 -0.29,-5.06 1,-7.48 1.29,-2.42 5.62,-6.76 6.1,-15.06"
           style="fill:none;stroke:#ffffff;stroke-linecap:round;stroke-linejoin:round"
           id="path1364" /><path
           d="m 141.55,306.46 c 0,0 6.77,-2.27 8.94,-7"
           style="fill:none;stroke:#ffffff;stroke-linecap:round;stroke-linejoin:round"
           id="path1366" /><path
           d="m 190.73,294.57 a 14.44,14.44 0 0 1 -7.54,5.27"
           style="fill:none;stroke:#ffffff;stroke-linecap:round;stroke-linejoin:round"
           id="path1368" /><path
           d="m 193.62,288.36 a 15.88,15.88 0 0 1 -1.2,3.41"
           style="fill:none;stroke:#ffffff;stroke-linecap:round;stroke-linejoin:round"
           id="path1370" /><path
           d="m 192.57,302.74 a 28.64,28.64 0 0 1 -2.84,1.64"
           style="fill:none;stroke:#ffffff;stroke-linecap:round;stroke-linejoin:round"
           id="path1372" /><path
           d="m 202.32,291.9 a 28.82,28.82 0 0 1 -7.3,9"
           style="fill:none;stroke:#ffffff;stroke-linecap:round;stroke-linejoin:round"
           id="path1374" /><path
           d="m 126.81,304.92 c 2.87,0.48 6.08,1.27 8.26,3.34"
           style="fill:none;stroke:#ffffff;stroke-linecap:round;stroke-linejoin:round"
           id="path1376" /><path
           d="m 120.1,304.38 c 1.13,0 2.26,0.05 3.39,0.14"
           style="fill:none;stroke:#ffffff;stroke-linecap:round;stroke-linejoin:round"
           id="path1378" /><path
           d="m 173.51,278.87 c 0,0 -9.41,5.16 -17.94,-5.94"
           style="fill:none;stroke:#ffffff;stroke-linecap:round;stroke-linejoin:round"
           id="path1380" /><path
           d="m 150.28,329.84 c -4.28,1.74 -9,3.4 -13.63,3.42"
           style="fill:none;stroke:#ffffff;stroke-linecap:round;stroke-linejoin:round"
           id="path1382" /><path
           d="m 157,326.74 c -1.14,0.59 -2.3,1.15 -3.48,1.69"
           style="fill:none;stroke:#ffffff;stroke-linecap:round;stroke-linejoin:round"
           id="path1384" /><path
           d="m 96.1,336.63 a 21,21 0 0 0 13.25,1.18"
           style="fill:none;stroke:#ffffff;stroke-linecap:round;stroke-linejoin:round"
           id="path1386" /><path
           d="m 113.74,360.65 c 2.62,-5.38 7,-10.19 13.07,-11.36"
           style="fill:none;stroke:#263238;stroke-linecap:round;stroke-linejoin:round"
           id="path1388" /><path
           d="m 111.2,367.88 a 30.83,30.83 0 0 1 1.25,-4.21"
           style="fill:none;stroke:#263238;stroke-linecap:round;stroke-linejoin:round"
           id="path1390" /><path
           d="m 94.32,354.23 c 0,0 5.8,-2.61 11.5,-1.5"
           style="fill:none;stroke:#263238;stroke-linecap:round;stroke-linejoin:round"
           id="path1392" /><path
           d="m 148.55,402 a 12,12 0 0 0 3.45,0"
           style="fill:none;stroke:#263238;stroke-linecap:round;stroke-linejoin:round"
           id="path1394" /><path
           d="m 123.49,384.19 c 5.72,6.9 13.21,14.26 21.88,17.1"
           style="fill:none;stroke:#263238;stroke-linecap:round;stroke-linejoin:round"
           id="path1396" /><path
           d="m 247.93,259.8 c 0,0 8.28,-3.21 10.08,-4.68 1.8,-1.47 3,-10 6.55,-7.9 0.95,0.55 0.44,4.37 0.44,4.37 a 5.51,5.51 0 0 1 2.52,1.19 c 1,0.94 -0.62,3.8 -0.62,3.8 a 7,7 0 0 1 1.22,4.51 c -0.05,1.62 -3.41,5.5 -7.91,8.7 -3.7,2.63 -8.06,5.27 -12.84,1.83"
           style="fill:#ffffff;stroke:#263238;stroke-linecap:round;stroke-linejoin:round"
           id="path1398" /><path
           d="m 244.26,267.84 a 11.84,11.84 0 0 1 -1,-7.81 c 1.07,-3.92 7.78,-6.4 9.54,-10.55 0,0 1.07,0.15 1.13,2.28 0.06,2.13 -3.58,6.26 -3.58,6.26 a 9.64,9.64 0 0 1 0.29,8.07"
           style="fill:#ffffff;stroke:#263238;stroke-linecap:round;stroke-linejoin:round"
           id="path1400" /><path
           d="m 268,259.12 c -1.89,-0.9 -2.49,-0.11 -2.85,2.2 l -2.59,1.9"
           style="fill:none;stroke:#263238;stroke-linecap:round;stroke-linejoin:round"
           id="path1402" /><path
           d="m 266.9,256.58 a 2,2 0 0 0 -1.46,-1.52 c -1.2,-0.24 -1.4,3.24 -1.4,3.24 l -2.1,1.08"
           style="fill:none;stroke:#263238;stroke-linecap:round;stroke-linejoin:round"
           id="path1404" /><path
           d="m 265,251.59 -2.5,0.18 c 0,0 -0.6,1.16 0.81,2.43 0,0 -0.38,1 -2.75,2.51"
           style="fill:none;stroke:#263238;stroke-linecap:round;stroke-linejoin:round"
           id="path1406" /></g><g
         id="freepik--character-2--inject-197"><path
           d="m 285.75,234.51 c -2.42,0 0.26,24.64 6.33,22.49 6.07,-2.15 9.1,-16.4 9.1,-16.4 z"
           style="fill:#263238;stroke:#263238;stroke-linecap:round;stroke-linejoin:round"
           id="path1409" /><path
           d="m 286.45,252.12 c 0,0 -7.29,4.37 -11.13,6.12 -4.05,1.85 -9.61,-0.27 -9.61,-0.27 -2.3,0.87 -9.19,-4 -9.38,-4.61 -0.3,-0.89 10,-15.75 10,-15.75 a 2,2 0 0 1 -1.86,-2.36 20.27,20.27 0 0 0 7.59,-2 c 3.9,-1.89 12.16,6.57 12.16,6.57 l 10.31,-4.21 1.63,14.21 z"
           style="fill:#bfbfbf;stroke:#263238;stroke-linecap:round;stroke-linejoin:round"
           id="path1411" /><path
           d="m 343,159.46 c -3.88,6.27 -8.81,53.3 -8.81,53.3 l -3.77,1.68 -1.58,4.87 c 0,0 -27.66,11.69 -32.41,13.47 a 34.7,34.7 0 0 1 -10.68,1.73 c 0,0 6.33,4.55 7.12,10 0.79,5.45 -0.79,12.48 -0.79,12.48 0,0 47.62,-16.88 52.53,-18.58 4.91,-1.7 14.08,-28.17 14.08,-28.17 z"
           style="fill:#92e3a9"
           id="path1413" /><g
           clip-path="url(#freepik--clip-path-3--inject-197)"
           id="g1427"><path
             d="m 354.77,220.64 c -3.09,7.62 -7.33,16.8 -10.16,17.78 l -0.35,0.12 c -4.48,-24.93 3.39,-55 3.39,-55 z"
             style="opacity:0.2"
             id="path1415" /><path
             d="m 358.69,210.25 c 0,0 -1.69,4.75 -3.92,10.39 -3.09,7.62 -7.33,16.8 -10.16,17.78 l -0.35,0.12 c -6.47,2.26 -52.18,18.46 -52.18,18.46 0,0 1.58,-7 0.79,-12.48 -0.79,-5.48 -7.12,-10 -7.12,-10 a 34.7,34.7 0 0 0 10.68,-1.73 c 4.75,-1.78 32.44,-13.47 32.44,-13.47 l 1.58,-4.87 3.77,-1.68 c 0,0 4.93,-47 8.81,-53.3 z"
             style="opacity:0.4"
             id="path1417" /><path
             d="m 423.42,157.54 c 6.72,10.28 20.57,52.89 22.15,58.82 1.58,5.93 -6.14,19.79 -16.12,19.59 -9.98,-0.2 -30,-12.47 -30,-12.47 0,0 13.42,-0.66 7.78,-19.72 l 11.21,2.79 c 0,0 -6,-16.15 -8.71,-22 -3.63,-7.91 -6.46,-9.49 -6.72,-22.94"
             style="fill:#92e3a9;stroke:#263238;stroke-linecap:round;stroke-linejoin:round"
             id="path1419" /><path
             d="m 423.42,157.54 c 6.72,10.28 20.57,52.89 22.15,58.82 1.58,5.93 -6.14,19.79 -16.12,19.59 -9.98,-0.2 -30,-12.47 -30,-12.47 0,0 13.42,-0.66 7.78,-19.72 l 11.21,2.79 c 0,0 -6,-16.15 -8.71,-22 -3.63,-7.91 -6.46,-9.49 -6.72,-22.94"
             style="fill:#92e3a9;stroke:#263238;stroke-linecap:round;stroke-linejoin:round"
             id="path1421" /><path
             d="m 423.42,157.54 c 6.72,10.28 20.57,52.89 22.15,58.82 1.58,5.93 -6.14,19.79 -16.12,19.59 -9.98,-0.2 -30,-12.47 -30,-12.47 0,0 13.42,-0.66 7.78,-19.72 l 11.21,2.79 c 0,0 -6,-16.15 -8.71,-22 -3.63,-7.91 -6.46,-9.49 -6.72,-22.94"
             style="fill:#92e3a9;stroke:#263238;stroke-linecap:round;stroke-linejoin:round"
             id="path1423" /><path
             d="m 423.42,157.54 c 6.72,10.28 20.57,52.89 22.15,58.82 1.58,5.93 -6.14,19.79 -16.12,19.59 -9.98,-0.2 -30,-12.47 -30,-12.47 0,0 13.42,-0.66 7.78,-19.72 l 11.21,2.79 c 0,0 -6,-16.15 -8.71,-22 -3.63,-7.91 -6.46,-9.49 -6.72,-22.94"
             style="fill:#92e3a9;stroke:#263238;stroke-linecap:round;stroke-linejoin:round"
             id="path1425" /></g><path
           d="m 343,159.46 c -3.88,6.27 -8.81,53.3 -8.81,53.3 l -3.77,1.68 -1.58,4.87 c 0,0 -27.66,11.69 -32.41,13.47 a 34.7,34.7 0 0 1 -10.68,1.73 c 0,0 6.33,4.55 7.12,10 0.79,5.45 -0.79,12.48 -0.79,12.48 0,0 47.62,-16.88 52.53,-18.58 4.91,-1.7 14.08,-28.17 14.08,-28.17 z"
           style="fill:none;stroke:#263238;stroke-linecap:round;stroke-linejoin:round"
           id="path1429" /><path
           d="m 404,456.65 c 0,0 1.85,-7.06 -0.31,-9.68 -3.89,-4.7 0.47,-8.64 -3.43,-10.28 l -1.63,1.9 c -0.32,-1.92 0.59,-7.77 -6.64,-8.54 -8.74,-0.92 -8.91,5.45 -9.38,7.54 l 0.14,-2.93 c -3.72,0 -1.79,3.72 -7.44,9.81 a 16.09,16.09 0 0 0 -4.09,12.18 z"
           style="fill:#263238"
           id="path1431" /><path
           d="m 337.33,456.65 c 3.52,-1.57 0.29,-14.83 0.29,-14.83 0,0 4.73,-3.18 0,-6.47 a 13.17,13.17 0 0 1 -13.43,2.18 c 0,0 -0.93,-8.88 -6.48,-7.74 0,0 -1.42,5.63 -4.68,8.84 -8.82,8.71 -20.23,9.7 -22.13,13.9 -0.57,1.26 0.12,4.12 0.12,4.12 z"
           style="fill:#263238"
           id="path1433" /><path
           d="m 352.39,245 -4.34,9.17 c 0,0 -17.9,37 -28.87,79.38 -0.26,1 -5.94,21.08 -1.39,71.05 l -2.59,8.77 2.8,14.49 c 0,0 -4.26,6.16 -4.11,8.17 0,0 10.52,2 14,3.85 2.73,1.47 10.92,9.56 10.92,9.56 2.32,-0.48 2.53,-9.88 2.53,-9.88 0,0 4.87,-83.43 6.25,-87 1.38,-3.57 9.94,-19.09 23.25,-54.56 0,0 0.3,49.55 3.86,62.08 3.16,11.15 -0.58,42.36 -0.58,42.36 l 2.13,34.74 c 0,0 -7.49,7.78 -1.41,9.87 0,0 4.05,-7.81 15.62,-9.58 5.87,-0.9 13.2,9.53 13.2,9.53 2.57,-0.82 -1.1,-13.93 -1.1,-13.93 8.2,-61.84 2.15,-50.65 3.79,-80.87 1,-19.4 6.55,-102.39 0.1,-109.13 z"
           style="fill:#757575"
           id="path1435" /><g
           clip-path="url(#freepik--clip-path-4--inject-197)"
           id="g1441"><path
             d="m 409.6,273.57 c -28.94,2.28 -54,-7.19 -64.88,-12.14 2.06,-4.64 3.33,-7.26 3.33,-7.26 l 4.34,-9.17 54.12,-2 c 2.33,2.47 3.1,14.84 3.09,30.57 z"
             style="opacity:0.2"
             id="path1437" /><path
             d="m 370.66,298.6 c -13.17,35 -21.63,50.35 -23,53.93 -0.79,2.07 -2.73,30.4 -4.24,54.18 -1.74,-21.63 -3.52,-44.46 -3.68,-48.94 -0.32,-8.91 6.12,-21.14 7.09,-24.3 0.97,-3.16 -1.22,-6.58 -1.22,-6.58 l 11.59,-14.61 c -0.39,-5 5.74,-26.6 5.74,-26.6 3.64,3.45 6.85,10.8 7.72,12.92 z"
             style="opacity:0.2"
             id="path1439" /></g><path
           d="m 352.39,245 -4.34,9.17 c 0,0 -17.9,37 -28.87,79.38 -0.26,1 -5.94,21.08 -1.39,71.05 l -2.59,8.77 2.8,14.49 c 0,0 -4.26,6.16 -4.11,8.17 0,0 10.52,2 14,3.85 2.73,1.47 10.92,9.56 10.92,9.56 2.32,-0.48 2.53,-9.88 2.53,-9.88 0,0 4.87,-83.43 6.25,-87 1.38,-3.57 9.94,-19.09 23.25,-54.56 0,0 0.3,49.55 3.86,62.08 3.16,11.15 -0.58,42.36 -0.58,42.36 l 2.13,34.74 c 0,0 -7.49,7.78 -1.41,9.87 0,0 4.05,-7.81 15.62,-9.58 5.87,-0.9 13.2,9.53 13.2,9.53 2.57,-0.82 -1.1,-13.93 -1.1,-13.93 8.2,-61.84 2.15,-50.65 3.79,-80.87 1,-19.4 6.55,-102.39 0.1,-109.13 z"
           style="fill:none;stroke:#263238;stroke-linecap:round;stroke-linejoin:round"
           id="path1443" /><path
           d="m 370.9,298 c 0,0 -6.61,-12.77 -12.26,-16.33"
           style="fill:none;stroke:#263238;stroke-linecap:round;stroke-linejoin:round"
           id="path1445" /><path
           d="m 356.16,277.5 c 0,0 20.1,6.12 27.06,7.3"
           style="fill:none;stroke:#263238;stroke-linecap:round;stroke-linejoin:round"
           id="path1447" /><path
           d="m 366.45,257 c -0.87,16.73 -6.77,19.57 -1.06,23.22 0,0 -0.16,7.83 2.68,12.79"
           style="fill:none;stroke:#263238;stroke-linecap:round;stroke-linejoin:round"
           id="path1449" /><path
           d="m 401.66,250.61 c 0,0 -2.37,25.71 5.54,30.54"
           style="fill:none;stroke:#263238;stroke-linecap:round;stroke-linejoin:round"
           id="path1451" /><path
           d="m 407.2,258.89 c 0,0 0.59,17.12 0,30.91 0,0 -2,58.3 -4,65.62 -2,7.32 3.05,18.36 2.61,50"
           style="fill:none;stroke:#263238;stroke-linecap:round;stroke-linejoin:round"
           id="path1453" /><path
           d="m 388.21,430.24 a 8.18,8.18 0 0 1 5.54,0.74"
           style="fill:none;stroke:#263238;stroke-linecap:round;stroke-linejoin:round"
           id="path1455" /><path
           d="m 376.31,437.15 a 30.32,30.32 0 0 1 8.52,-5.84"
           style="fill:none;stroke:#263238;stroke-linecap:round;stroke-linejoin:round"
           id="path1457" /><path
           d="m 379.62,302 c 4.44,5 11.47,14.35 18.68,15.15"
           style="fill:none;stroke:#263238;stroke-linecap:round;stroke-linejoin:round"
           id="path1459" /><path
           d="m 372.78,293.9 c 1.37,1.73 2.77,3.42 4.2,5.09"
           style="fill:none;stroke:#263238;stroke-linecap:round;stroke-linejoin:round"
           id="path1461" /><path
           d="m 379.11,352.17 c 0,0 10.09,13.73 15.63,14.52"
           style="fill:none;stroke:#263238;stroke-linecap:round;stroke-linejoin:round"
           id="path1463" /><path
           d="m 367.24,295.48 c 0,0 -18,50 -24.21,55 0,0 -0.71,36.79 -0.91,49.65 -0.2,12.86 -3.12,29.93 -3.12,29.93"
           style="fill:none;stroke:#263238;stroke-linecap:round;stroke-linejoin:round"
           id="path1465" /><path
           d="m 319.77,429.69 c 0,0 6.92,2.39 10.28,3.92 a 9.22,9.22 0 0 1 4.55,4.88"
           style="fill:none;stroke:#263238;stroke-linecap:round;stroke-linejoin:round"
           id="path1467" /><path
           d="m 337.28,332.43 c 9.65,-6.06 22.37,-13.62 27.49,-24.29"
           style="fill:none;stroke:#263238;stroke-linecap:round;stroke-linejoin:round"
           id="path1469" /><path
           d="m 328.87,337.42 c 1.82,-1 3.62,-2.07 5.4,-3.15"
           style="fill:none;stroke:#263238;stroke-linecap:round;stroke-linejoin:round"
           id="path1471" /><path
           d="m 359.26,263.76 c 5.19,-0.07 10.87,-0.76 15.3,-3.68"
           style="fill:none;stroke:#263238;stroke-linecap:round;stroke-linejoin:round"
           id="path1473" /><path
           d="m 351,263.28 c 1.49,0.21 3,0.33 4.48,0.41"
           style="fill:none;stroke:#263238;stroke-linecap:round;stroke-linejoin:round"
           id="path1475" /><path
           d="m 342.11,170.87 c 0.1,1.54 1.89,4.35 1.89,4.35 v 0 c 1.12,16.6 3.11,41.06 5.37,46.51 3.5,8.42 -4.6,37.32 -4.6,37.32 20.47,8.85 69.67,1 69.67,1 0,0 -7.93,-25.64 -3.71,-43.8 1.64,-7 3.91,-17.44 6.08,-27.55 3.43,-16 6.61,-31.18 6.61,-31.18 0,0 -9.5,-12.91 -40.06,-14 C 352.8,142.43 343,159.46 343,159.46 a 17.42,17.42 0 0 0 -0.91,6"
           style="fill:#92e3a9"
           id="path1477" /><g
           clip-path="url(#freepik--clip-path-5--inject-197)"
           id="g1481"><path
             d="m 342.11,170.87 c 0.1,1.54 1.89,4.35 1.89,4.35 v 0 c 1.12,16.6 3.11,41.06 5.37,46.51 3.5,8.42 -4.6,37.32 -4.6,37.32 20.47,8.85 69.67,1 69.67,1 0,0 -7.93,-25.64 -3.71,-43.8 1.64,-7 3.91,-17.44 6.08,-27.55 3.43,-16 6.61,-31.18 6.61,-31.18 0,0 -9.5,-12.91 -40.06,-14 C 352.8,142.43 343,159.46 343,159.46 a 17.42,17.42 0 0 0 -0.91,6"
             style="opacity:0.4"
             id="path1479" /></g><path
           d="m 342.11,170.87 c 0.1,1.54 1.89,4.35 1.89,4.35 v 0 c 1.12,16.6 3.11,41.06 5.37,46.51 3.5,8.42 -4.6,37.32 -4.6,37.32 20.47,8.85 69.67,1 69.67,1 0,0 -7.93,-25.64 -3.71,-43.8 1.64,-7 3.91,-17.44 6.08,-27.55 3.43,-16 6.61,-31.18 6.61,-31.18 0,0 -9.5,-12.91 -40.06,-14 C 352.8,142.43 343,159.46 343,159.46 a 17.42,17.42 0 0 0 -0.91,6"
           style="fill:none;stroke:#263238;stroke-linecap:round;stroke-linejoin:round"
           id="path1483" /><path
           d="m 383.36,143.54 c 0,0 -3.24,10.1 -13.13,12 -4.17,0.8 -6.05,-0.49 -6.84,-2.25 -1.08,-2.42 -0.07,-5.74 -0.07,-5.74 0,0 -0.28,-0.64 -0.78,-1.54 -0.24,-0.43 -0.52,-0.91 -0.85,-1.41 -1.17,-1.82 -2.94,-3.89 -5,-4.29 -0.78,-0.15 -0.67,-0.67 0.09,-1.37 2.87,-2.65 14.41,-8.73 20.73,-6.52 a 14.69,14.69 0 0 0 5.85,11.12 z"
           style="fill:#bfbfbf;stroke:#263238;stroke-linecap:round;stroke-linejoin:round"
           id="path1485" /><path
           d="m 363.39,153.29 c -1.08,-2.42 -0.07,-5.74 -0.07,-5.74 0,0 -0.28,-0.64 -0.78,-1.54 4,-3.2 8.26,-6.09 8.26,-6.09 0,0 0.5,9.89 -7.41,13.37 z"
           style="fill:#263238"
           id="path1487" /><path
           d="m 336.68,112.32 c 0,0 1.09,11.94 8.61,17 7.52,5.06 2.36,-20.12 2.36,-20.12 z"
           style="fill:#263238"
           id="path1489" /><path
           d="m 377.42,130.55 c 0,0 0.5,-7.15 -0.73,-11.08 -5.25,-16.81 -10.65,-26.19 -28.63,-18.68 -12.7,5.3 -8.06,24 -4.07,29.22 2.25,2.91 2.82,6.89 3.75,9.81 1,3.25 9.93,12.63 13.95,11.1 5.13,-1.95 11.29,-8.49 10.74,-11.7"
           style="fill:#bfbfbf;stroke:#263238;stroke-linecap:round;stroke-linejoin:round"
           id="path1491" /><path
           d="m 355.87,126.52 c 0.3,0.86 1,1.39 1.62,1.18 0.62,-0.21 0.83,-1.08 0.53,-1.94 -0.3,-0.86 -1,-1.38 -1.63,-1.17 -0.63,0.21 -0.83,1.07 -0.52,1.93 z"
           style="fill:#263238"
           id="path1493" /><path
           d="m 346.58,129.29 c 0.3,0.86 1,1.39 1.62,1.18 0.62,-0.21 0.84,-1.08 0.53,-1.94 -0.31,-0.86 -1,-1.39 -1.62,-1.18 -0.62,0.21 -0.84,1.08 -0.53,1.94 z"
           style="fill:#263238"
           id="path1495" /><path
           d="m 358.69,120.92 a 5.68,5.68 0 0 0 -5.32,-0.46"
           style="fill:none;stroke:#263238;stroke-linecap:round;stroke-linejoin:round"
           id="path1497" /><path
           d="m 345.77,123.35 c 0,0 -2.86,0.28 -2.23,2.79"
           style="fill:none;stroke:#263238;stroke-linecap:round;stroke-linejoin:round"
           id="path1499" /><path
           d="m 350.6,129.27 c 0,0 -1.71,8.69 -0.93,9 2.18,0.9 5.64,-2.58 5.64,-2.58"
           style="fill:none;stroke:#263238;stroke-linecap:round;stroke-linejoin:round"
           id="path1501" /><path
           d="m 353.82,140.87 a 10.62,10.62 0 0 0 6.89,-3.65 c 0,0 0.48,4.43 -2.07,5.22 a 3.24,3.24 0 0 1 -3.79,-1.39"
           style="fill:#ffffff;stroke:#263238;stroke-linecap:round;stroke-linejoin:round"
           id="path1503" /><path
           d="m 359.92,110 c 0,0 -9.49,2.47 -14.15,6.72 0,0 -9.35,3.19 -11.41,-6 -1.24,-5.56 6.08,-12.49 6.08,-12.49 l -0.67,4.26 c 0,0 6.48,-8.9 21,-8.9 18.27,0 20,16.23 20.14,24.92 0.2,9.89 -3.37,16.18 -3.37,16.18 l -3,-2.14 c 0,0 0.4,-18.05 -6.53,-6.75 0,0 0.2,-5.51 -4.15,-7.09 -4.35,-1.58 -3.94,-8.71 -3.94,-8.71 z"
           style="fill:#263238"
           id="path1505" /><path
           d="m 369.76,124.25 c 0,0 1.71,-6.4 4.69,-3.27 2.98,3.13 0.57,12.14 -2,11.4 -2.57,-0.74 -1.42,-2 -1.42,-2"
           style="fill:#bfbfbf;stroke:#263238;stroke-linecap:round;stroke-linejoin:round"
           id="path1507" /><path
           d="m 414.44,260.07 c 0,0 -49.2,7.85 -69.67,-1 0,0 8.1,-28.9 4.6,-37.32 -2.26,-5.45 -4.25,-29.91 -5.37,-46.51 v 0 c 0,0 9,-16.54 16.75,-21.45 a 7.74,7.74 0 0 0 7.32,5.6 c 6,0.29 15.15,-9.55 15.15,-9.55 0,0 23.94,18.64 33.59,38.9 -2.17,10.11 -4.44,20.52 -6.08,27.55 -4.22,18.14 3.71,43.78 3.71,43.78 z"
           style="fill:#ffffff"
           id="path1509" /><g
           clip-path="url(#freepik--clip-path-6--inject-197)"
           id="g1513"><path
             d="m 412.66,253.27 c -10.77,-6.6 -33.34,-21.22 -38.1,-30.58 0,0 -15.66,2.33 -18,-1.21 -2.34,-3.54 -5.56,-25.82 -5.56,-25.82 l 33.66,-1.2 20.44,15.2 2.34,-11 c 0,0 -4.58,-19.16 0,-24.59 a 79.93,79.93 0 0 1 9.35,14.66 c -2.17,10.11 -4.44,20.52 -6.08,27.55 -2.85,12.34 -0.1,28.14 1.95,36.99 z"
             style="opacity:0.2"
             id="path1511" /></g><path
           d="m 414.44,260.07 c 0,0 -49.2,7.85 -69.67,-1 0,0 8.1,-28.9 4.6,-37.32 -2.26,-5.45 -4.25,-29.91 -5.37,-46.51 v 0 c 0,0 9,-16.54 16.75,-21.45 a 7.74,7.74 0 0 0 7.32,5.6 c 6,0.29 15.15,-9.55 15.15,-9.55 0,0 23.94,18.64 33.59,38.9 -2.17,10.11 -4.44,20.52 -6.08,27.55 -4.22,18.14 3.71,43.78 3.71,43.78 z"
           style="fill:none;stroke:#263238;stroke-linecap:round;stroke-linejoin:round"
           id="path1515" /><path
           d="m 334.22,212.76 c 0,0 5.07,-2.55 6.65,0"
           style="fill:none;stroke:#263238;stroke-linecap:round;stroke-linejoin:round"
           id="path1517" /><path
           d="m 335.22,220.68 a 8.44,8.44 0 0 0 3.74,-1.37"
           style="fill:none;stroke:#263238;stroke-linecap:round;stroke-linejoin:round"
           id="path1519" /><path
           d="m 328.87,219.31 a 11.22,11.22 0 0 0 3,1.15"
           style="fill:none;stroke:#263238;stroke-linecap:round;stroke-linejoin:round"
           id="path1521" /><path
           d="M 362.76,249.14 A 21.84,21.84 0 0 1 358.69,250"
           style="fill:none;stroke:#263238;stroke-linecap:round;stroke-linejoin:round"
           id="path1523" /><path
           d="m 392,234 c -8.09,5.22 -16.58,10.23 -25.54,13.79"
           style="fill:none;stroke:#263238;stroke-linecap:round;stroke-linejoin:round"
           id="path1525" /><path
           d="m 399.42,179.18 c 0,0 5.16,8.81 11.68,8.62"
           style="fill:none;stroke:#263238;stroke-linecap:round;stroke-linejoin:round"
           id="path1527" /><path
           d="m 382.76,172.33 c -4.84,10.38 -12.87,25 -25.48,26.82"
           style="fill:none;stroke:#263238;stroke-linecap:round;stroke-linejoin:round"
           id="path1529" /><path
           d="m 385.54,165.73 c -0.42,1.13 -0.87,2.25 -1.34,3.36"
           style="fill:none;stroke:#263238;stroke-linecap:round;stroke-linejoin:round"
           id="path1531" /><rect
           x="242.82001"
           y="233.64999"
           width="40.810001"
           height="19.450001"
           rx="3.54"
           transform="rotate(7.37,263.1801,243.26955)"
           style="fill:#92e3a9;stroke:#263238;stroke-linecap:round;stroke-linejoin:round"
           id="rect1533" /><rect
           x="249.72"
           y="233.64999"
           width="27.01"
           height="19.450001"
           transform="rotate(7.37,263.1851,243.34719)"
           style="fill:#ffffff"
           id="rect1535" /><line
           x1="249.45"
           y1="244.56"
           x2="249.72"
           y2="242.5"
           style="fill:#ffffff;stroke:#263238;stroke-linecap:round;stroke-linejoin:round"
           id="line1537" /><polyline
           points="275.78 251.5 275.36 254.75 248.58 251.28 249.29 245.82"
           style="fill:none;stroke:#263238;stroke-linecap:round;stroke-linejoin:round"
           id="polyline1539" /><line
           x1="277.19"
           y1="240.64999"
           x2="276.60999"
           y2="245.10001"
           style="fill:#ffffff;stroke:#263238;stroke-linecap:round;stroke-linejoin:round"
           id="line1541" /><polyline
           points="250.59 235.76 251.07 232 277.86 235.46 277.45 238.59"
           style="fill:none;stroke:#263238;stroke-linecap:round;stroke-linejoin:round"
           id="polyline1543" /><path
           d="m 280.72,249.94 a 1.32,1.32 0 1 1 -2.61,-0.34 1.32,1.32 0 0 1 2.61,0.34 z"
           style="fill:#263238"
           id="path1545" /><path
           d="m 281.25,240.73 a 0.66049224,0.66049224 0 0 1 -1.31,-0.17 0.66049224,0.66049224 0 0 1 1.31,0.17 z"
           style="fill:#263238"
           id="path1547" /><path
           d="m 280.91,243.34 a 0.66,0.66 0 1 1 -0.57,-0.74 0.67,0.67 0 0 1 0.57,0.74 z"
           style="fill:#263238"
           id="path1549" /><path
           d="m 281.64,242.77 a 0.65,0.65 0 0 1 -0.56,-0.74 0.64,0.64 0 0 1 0.73,-0.56 0.65,0.65 0 0 1 0.57,0.73 0.66,0.66 0 0 1 -0.74,0.57 z"
           style="fill:#263238"
           id="path1551" /><path
           d="m 279,242.43 a 0.65,0.65 0 0 1 -0.57,-0.73 0.66,0.66 0 0 1 0.74,-0.57 0.65,0.65 0 0 1 0.56,0.74 0.64,0.64 0 0 1 -0.73,0.56 z"
           style="fill:#263238"
           id="path1553" /><path
           d="m 245.72,236.8 a 1.3,1.3 0 0 1 1.47,-1.13 1.32,1.32 0 0 1 1.14,1.47 1.3,1.3 0 0 1 -1.47,1.13 1.32,1.32 0 0 1 -1.14,-1.47 z"
           style="fill:#263238"
           id="path1555" /><path
           d="m 245.19,246 a 0.66,0.66 0 1 1 0.57,0.74 0.67,0.67 0 0 1 -0.57,-0.74 z"
           style="fill:#263238"
           id="path1557" /><path
           d="m 245.53,243.4 a 0.65,0.65 0 0 1 0.74,-0.56 0.64,0.64 0 0 1 0.56,0.73 0.65,0.65 0 0 1 -0.73,0.57 0.66,0.66 0 0 1 -0.57,-0.74 z"
           style="fill:#263238"
           id="path1559" /><path
           d="m 244.79,244 a 0.66,0.66 0 0 1 0.57,0.74 0.64,0.64 0 0 1 -0.73,0.56 0.65490457,0.65490457 0 0 1 0.16,-1.3 z"
           style="fill:#263238"
           id="path1561" /><path
           d="m 247.4,244.31 a 0.65,0.65 0 0 1 0.57,0.73 0.66,0.66 0 0 1 -0.74,0.57 0.66,0.66 0 0 1 0.17,-1.3 z"
           style="fill:#263238"
           id="path1563" /><rect
           x="251.37"
           y="235.38"
           width="23.709999"
           height="15.97"
           transform="rotate(7.37,263.1851,243.34719)"
           style="fill:#263238"
           id="rect1565" /><rect
           x="349.38"
           y="189.59"
           width="40.810001"
           height="19.450001"
           rx="3.54"
           transform="rotate(-9.33,369.74587,199.3047)"
           style="fill:#92e3a9;stroke:#263238;stroke-linecap:round;stroke-linejoin:round"
           id="rect1567" /><rect
           x="356.28"
           y="189.59"
           width="27.01"
           height="19.450001"
           transform="rotate(-9.33,369.80715,199.3097)"
           style="fill:#ffffff"
           id="rect1569" /><line
           x1="356.92999"
           y1="204.41"
           x2="356.59"
           y2="202.36"
           style="fill:#ffffff;stroke:#263238;stroke-linecap:round;stroke-linejoin:round"
           id="line1571" /><polyline
           points="384.15 203.5 384.68 206.73 358.03 211.1 357.14 205.67"
           style="fill:none;stroke:#263238;stroke-linecap:round;stroke-linejoin:round"
           id="polyline1573" /><line
           x1="382.38"
           y1="192.7"
           x2="383.10999"
           y2="197.13"
           style="fill:#ffffff;stroke:#263238;stroke-linecap:round;stroke-linejoin:round"
           id="line1575" /><polyline
           points="355.49 195.66 354.88 191.91 381.53 187.53 382.04 190.65"
           style="fill:none;stroke:#263238;stroke-linecap:round;stroke-linejoin:round"
           id="polyline1577" /><path
           d="m 369.47,195.34 0.82,6.62 a 3.37,3.37 0 0 0 -0.82,-6.62 z"
           style="fill:#92e3a9"
           id="path1579" /><path
           d="m 368.48,195.46 a 3.37,3.37 0 0 0 0.81,6.62 z"
           style="fill:#92e3a9"
           id="path1581" /><path
           d="m 265.71,258 c -2,-0.11 -6.66,-5.44 -6.66,-5.44 a 13.41,13.41 0 0 1 2.54,-0.54 c 2.51,-0.12 6.18,4 6.18,4"
           style="fill:#bfbfbf;stroke:#263238;stroke-linecap:round;stroke-linejoin:round"
           id="path1583" /><path
           d="m 272.09,258.57 c -4,0.06 -7.1,-4.84 -7.1,-4.84 a 3.18,3.18 0 0 1 1.45,-0.87 c 2.41,-0.69 5.4,2.72 5.4,2.72"
           style="fill:#bfbfbf;stroke:#263238;stroke-linecap:round;stroke-linejoin:round"
           id="path1585" /><path
           d="m 407.2,203.76 c -3.89,-1.76 -16.42,14.9 -7.78,19.72 8.64,4.82 19.08,-14.61 7.78,-19.72 z"
           style="fill:#263238;stroke:#263238;stroke-linecap:round;stroke-linejoin:round"
           id="path1587" /><path
           d="m 390.77,195.34 a 32.15,32.15 0 0 1 7.42,5.73 c 3.42,3.63 14.18,5.77 14.18,5.77 l -4.59,14.64 -11.14,-5.34 c 0,0 -5.49,2.69 -8.7,-2.64 -1.89,-3.15 2.83,-18.16 2.83,-18.16 z"
           style="fill:#bfbfbf;stroke:#263238;stroke-linecap:round;stroke-linejoin:round"
           id="path1589" /><path
           d="m 393.63,211.87 c -0.88,3.24 -2.07,4.27 -9.62,2.71 -1.92,-0.39 -0.82,-2.38 -0.82,-2.38 0,0 -2.81,-0.71 -2.36,-3.06 0,0 -5.06,0.49 -5.06,-0.91 0,-1.4 4.2,-3.85 4.2,-3.85 0,0 -8,2.46 -0.62,-4.34 0,0 8.62,-5.29 11.42,-4.7 1,0.21 1.79,1.9 2.34,4.17"
           style="fill:#bfbfbf;stroke:#263238;stroke-linecap:round;stroke-linejoin:round"
           id="path1591" /><path
           d="m 380,204.38 a 29.22,29.22 0 0 1 5.28,-2.1 19.22,19.22 0 0 0 3.62,-1.21"
           style="fill:none;stroke:#263238;stroke-linecap:round;stroke-linejoin:round"
           id="path1593" /><path
           d="m 380.83,209.14 c 0,0 4.73,-1.23 8,-1.75"
           style="fill:none;stroke:#263238;stroke-linecap:round;stroke-linejoin:round"
           id="path1595" /><path
           d="m 383.19,212.2 c 0,0 3.4,-0.43 4.75,-0.65"
           style="fill:none;stroke:#263238;stroke-linecap:round;stroke-linejoin:round"
           id="path1597" /><path
           d="m 423.42,157.54 c 6.72,10.28 20.57,52.89 22.15,58.82 1.58,5.93 -6.14,19.79 -16.12,19.59 -9.98,-0.2 -30,-12.47 -30,-12.47 0,0 13.42,-0.66 7.78,-19.72 l 11.21,2.79 c 0,0 -6,-16.15 -8.71,-22 -3.63,-7.91 -6.46,-9.49 -6.72,-22.94"
           style="fill:#92e3a9"
           id="path1599" /><g
           clip-path="url(#freepik--clip-path-7--inject-197)"
           id="g1603"><path
             d="m 423.42,157.54 c 6.72,10.28 20.57,52.89 22.15,58.82 1.58,5.93 -6.14,19.79 -16.12,19.59 -9.98,-0.2 -30,-12.47 -30,-12.47 0,0 13.42,-0.66 7.78,-19.72 l 11.21,2.79 c 0,0 -6,-16.15 -8.71,-22 -3.63,-7.91 -6.46,-9.49 -6.72,-22.94"
             style="opacity:0.4"
             id="path1601" /></g><path
           d="m 423.42,157.54 c 6.72,10.28 20.57,52.89 22.15,58.82 1.58,5.93 -6.14,19.79 -16.12,19.59 -9.98,-0.2 -30,-12.47 -30,-12.47 0,0 13.42,-0.66 7.78,-19.72 l 11.21,2.79 c 0,0 -6,-16.15 -8.71,-22 -3.63,-7.91 -6.46,-9.49 -6.72,-22.94"
           style="fill:none;stroke:#263238;stroke-linecap:round;stroke-linejoin:round"
           id="path1605" /><path
           d="m 418.41,206.55 c 0,0 12.13,0 15.29,6.21"
           style="fill:none;stroke:#263238;stroke-linecap:round;stroke-linejoin:round"
           id="path1607" /><path
           d="m 433.2,208 a 8.28,8.28 0 0 1 2.61,1.68"
           style="fill:none;stroke:#263238;stroke-linecap:round;stroke-linejoin:round"
           id="path1609" /><path
           d="m 424.5,207.24 a 19.24,19.24 0 0 1 5,-0.16"
           style="fill:none;stroke:#263238;stroke-linecap:round;stroke-linejoin:round"
           id="path1611" /></g></g></g></svg>
