<?xml version="1.0" encoding="UTF-8" standalone="no"?>
<!-- Created with Inkscape (http://www.inkscape.org/) -->

<svg
   width="48.022408mm"
   height="58.847717mm"
   viewBox="0 0 48.022408 58.847717"
   version="1.1"
   id="svg5"
   xml:space="preserve"
   xmlns="http://www.w3.org/2000/svg"
   xmlns:svg="http://www.w3.org/2000/svg"><defs
     id="defs2"><clipPath
       clipPathUnits="userSpaceOnUse"
       id="clipPath831"><path
         d="M 0,660 H 660 V 0 H 0 Z"
         id="path829" /></clipPath></defs><g
     id="layer1"
     transform="translate(-84.456686,-97.213707)"><g
       id="g823"
       transform="matrix(0.09521881,0,0,-0.09521881,75.058437,157.50102)"><path
         d="m 143.93,246.113 -3.565,-23.343 -5.543,6.74 30.112,69.7 0.897,-10.452 50.788,50.79 c 6.323,7.449 11.248,15.98 14.54,25.181 5.104,14.268 5.104,29.865 0,44.135 l -5.046,14.104 c 16.489,-12.091 26.23,-31.316 26.23,-51.765 0,-20.446 -9.741,-39.671 -26.23,-51.765 -21.654,-15.877 -40.751,-34.975 -56.63,-56.628 l -10.009,-13.65 v 17.747 z M 305.446,606.98 c 0.973,0 1.872,-0.312 2.604,-0.844 -0.143,0.03 -0.291,0.044 -0.442,0.044 -1.257,0 -2.276,-1.018 -2.276,-2.275 0,-1.256 1.019,-2.275 2.276,-2.275 1.061,0 1.952,0.727 2.204,1.709 0.046,-0.257 0.07,-0.524 0.07,-0.795 0,-2.451 -1.986,-4.437 -4.436,-4.437 -2.451,0 -4.437,1.986 -4.437,4.437 0,2.45 1.986,4.436 4.437,4.436 m 17.519,26.165 h -30.717 c -22.658,0 -43.595,-12.087 -54.924,-31.71 -11.328,-19.622 -11.328,-43.798 0,-63.421 17.316,-29.992 7.04,-68.343 -22.951,-85.658 -13.9,-8.025 -25.442,-19.567 -33.466,-33.468 -36.158,-62.624 -55.194,-133.665 -55.194,-205.979 l 18.217,33.204 1.756,-26.329 c 4.0757,-61.15696 -2.24741,-122.763951 -44.07128,-167.469721 -1.3019,-1.391611 -3.162567,-8.011894 -2.885376,-9.390005 0.676019,-1.932937 1.719676,-3.57062 3.777786,-4.393577 L 131.643,25.83 c 2.46732,-1.207506 39.18655,98.35234 17.34341,24.969598 -0.25885,-0.869629 -11.46596,-27.491656 -10.62009,-27.816773 8.07487,-3.103669 16.0517,-4.683017 24.80247,-6.142562 2.24508,-0.374458 16.69964,64.047577 18.97621,63.774909 1.52649,-0.182831 -9.13226,-65.088883 -7.59544,-65.22457 20.55432,-1.814757 40.40519,5.951662 60.34884,8.676604 2.85931,0.390675 3.33876,1.028838 3.3055,1.782954 0.23741,0.676643 -0.11919,2.582037 -0.5375,4.615073 L 226.427,80.243 c -9.526,42.178 -9.526,85.951 0,128.132 2.317,10.264 5.741,20.185 10.18,29.601 -0.284,-0.005 -0.571,-0.015 -0.859,-0.038 -4.533,-0.319 -7.581,-1.824 -9.828,-7.473 1.295,5.121 4.407,9.015 8.292,9.892 8.454,1.904 16.852,-3.886 21.217,-14.631 l 2.509,-6.181 1.752,-1.74 0.268,-7.835 2.267,9.269 c -1.586,15.282 -9.283,27.248 -19.11,30.982 2.322,3.898 4.827,7.685 7.51,11.352 5.204,-3.026 11.434,-3.595 17.024,-1.713 l 7.296,-6.18 c -3.312,-6.623 -2.991,-12.934 0.188,-19.003 -0.091,7.674 5.477,14.244 13.061,15.414 12.345,1.903 24.609,-3.887 30.982,-14.632 l 3.665,-6.181 2.557,-1.74 0.392,-7.835 3.308,9.27 c -2.834,18.716 -19.058,32.466 -37.987,32.192 l -7.214,-0.102 -6.177,5.966 c 6.661,7.891 8.915,18.729 5.75,28.741 19.082,18.191 37.581,36.989 55.471,56.357 32.788,35.504 33.656,89.733 2.612,126.233 l 7.072,-13.79 c 14.508,-28.278 14.508,-61.812 0,-90.089 -17.761,-36.03 -83.018,-4.516 -75.634,38.524 l 2.836,16.53 c 2.222,12.951 5.63,25.67 10.181,37.995 9.185,24.877 9.185,52.216 0,77.093 l -7.905,18.909 c -4.36543,19.3524 -2.66329,37.65205 10.30815,47.71646 8.48987,6.09194 -5.59646,-12.368 6.18885,-20.42446 4.791,-2.765 10.783,-2.328 15.122,1.102 4.223,3.34 6.055,8.871 4.663,14.07 -1.394,5.2 -5.746,9.074 -11.073,9.854 -9.98886,0.51682 -14.76256,-2.94219 -21.10032,-9.41851 7.409,9.98 19.99632,18.86251 32.47432,20.46451 2.785,0.357 5.604,0.357 8.387,0 l -0.015,-0.095 c -0.765,-2.662 -1.205,-5.325 -1.379,-7.946 v -0.004 c -1.02,-5.876 -2.567,-11.647 -4.621,-17.246 -3.186,-8.678 -0.575,-18.423 6.523,-24.345 3.586,-2.994 5.661,-7.425 5.661,-12.097 0,-4.672 -2.075,-9.102 -5.661,-12.096 -8.846,-7.381 -12.099,-19.525 -8.129,-30.341 3.143,-8.565 7.274,-16.719 12.299,-24.299 -7.977,18.289 -6.626,39.643 4.058,56.891 4.058,6.553 4.048,14.323 -0.024,20.867 l -2.678,4.302 c -5.922,9.519 -8.347,20.537 -7.275,31.284 0.449,-4.203 1.497,-8.177 2.873,-11.719 2.628,-6.77 8.619,-11.109 15.873,-11.497 59.433,-3.182 108.051,-12.371 157.761,-24.37 -49.136,6.189 -99.708,17.488 -147.285,18.152 -3.093,0.041 -5.751,-1.736 -6.898,-4.608 -1.142,-2.872 -0.431,-5.992 1.843,-8.085 13.672,-12.59 31.094,-18.11 56.11,-18.041 31.265,0.084 62.635,1.104 93.252,-4.565 23.139,-4.285 37.455,-2.781 55.432,3.823 16.74,-4.374 34.02,-8.927 52.246,-13.549 0,16.549 -8.83,31.842 -23.164,40.117 -76.306,44.055 -138.676,53.595 -216.97,55.357 l 0.921,-0.081 c 1.446,-0.124 2.907,-0.256 4.386,-0.397 0.516,-0.049 1.03,-0.096 1.551,-0.147 0.679,-0.066 1.366,-0.136 2.05,-0.207 l 1.573,-0.161 2.098,-0.224 1.75,-0.193 c 0.648,-0.072 1.292,-0.144 1.943,-0.22 0.644,-0.073 1.294,-0.15 1.941,-0.227 0.631,-0.075 1.259,-0.148 1.892,-0.225 0.674,-0.081 1.353,-0.168 2.03,-0.252 1.168,-0.147 2.34,-0.296 3.521,-0.45 0.649,-0.085 1.299,-0.17 1.954,-0.256 0.657,-0.09 1.317,-0.182 1.976,-0.27 l 2.029,-0.282 1.926,-0.272 c 0.692,-0.1 1.386,-0.2 2.079,-0.301 0.67,-0.099 1.339,-0.197 2.011,-0.299 0.665,-0.098 1.329,-0.2 1.996,-0.301 0.687,-0.105 1.371,-0.209 2.06,-0.317 0.755,-0.117 1.514,-0.238 2.274,-0.359 0.66,-0.104 1.315,-0.208 1.975,-0.314 0.796,-0.129 1.593,-0.259 2.388,-0.391 -3.793,-0.39 -5.962,-1.288 -6.011,-2.72 -0.161,-4.777 23.331,-13.679 52.472,-19.881 29.142,-6.202 52.899,-7.356 53.06,-2.578 0.008,0.177 -0.024,0.357 -0.08,0.544 0.703,-0.249 1.404,-0.5 2.101,-0.753 0.5,-0.181 0.999,-0.362 1.495,-0.545 0.753,-0.276 1.498,-0.553 2.238,-0.831 0.444,-0.168 0.889,-0.332 1.331,-0.501 0.816,-0.31 1.627,-0.623 2.431,-0.937 0.381,-0.147 0.762,-0.293 1.138,-0.442 1.159,-0.455 2.307,-0.914 3.441,-1.377 l 0.014,-0.006 c 1.138,-0.465 2.262,-0.933 3.374,-1.405 0.349,-0.148 0.692,-0.296 1.038,-0.445 0.762,-0.328 1.522,-0.657 2.272,-0.986 0.413,-0.182 0.826,-0.367 1.236,-0.55 0.667,-0.299 1.329,-0.599 1.985,-0.899 0.423,-0.193 0.842,-0.387 1.26,-0.581 0.687,-0.319 1.364,-0.642 2.038,-0.963 0.354,-0.17 0.713,-0.34 1.065,-0.511 0.815,-0.397 1.622,-0.797 2.421,-1.198 0.203,-0.101 0.408,-0.201 0.608,-0.303 0.985,-0.5 1.952,-1.003 2.907,-1.509 0.272,-0.144 0.533,-0.289 0.802,-0.433 0.682,-0.367 1.359,-0.734 2.023,-1.104 0.337,-0.189 0.67,-0.377 1.002,-0.565 0.593,-0.336 1.179,-0.673 1.758,-1.012 0.328,-0.191 0.656,-0.384 0.978,-0.577 0.584,-0.347 1.155,-0.697 1.723,-1.046 0.299,-0.184 0.597,-0.367 0.893,-0.552 0.623,-0.393 1.235,-0.788 1.837,-1.183 0.216,-0.141 0.438,-0.282 0.65,-0.423 0.804,-0.535 1.593,-1.074 2.361,-1.615 0.151,-0.107 0.293,-0.215 0.441,-0.321 0.612,-0.436 1.215,-0.875 1.799,-1.315 0.251,-0.188 0.496,-0.38 0.742,-0.569 0.472,-0.364 0.939,-0.727 1.393,-1.092 0.257,-0.206 0.511,-0.414 0.763,-0.623 0.432,-0.358 0.857,-0.717 1.272,-1.076 0.242,-0.209 0.484,-0.418 0.719,-0.627 0.427,-0.382 0.843,-0.766 1.253,-1.151 0.193,-0.182 0.393,-0.362 0.582,-0.544 0.586,-0.567 1.157,-1.135 1.7,-1.708 -12.419,5.829 -42.01,19.276 -44.961,7.542 -61.124,16.175 -117.665,29.48 -180.316,37.789 -5.881,0.779 -10.408,4.55 -10.168,8.47 l 0.017,0.268 v 0.019 l 0.012,0.241 0.002,0.035 0.01,0.216 0.003,0.051 0.004,0.192 0.002,0.067 v 0.004 l 0.006,0.234 v 0.01 l 0.002,0.148 0.002,0.093 v 0.054 0.144 0.034 l -0.002,0.107 v 0.053 l -0.002,0.129 v 0.024 l -0.006,0.127 -0.002,0.073 -0.004,0.136 -0.003,0.005 -0.007,0.138 -0.003,0.058 -0.002,0.042 -0.012,0.154 -0.003,0.028 -0.014,0.159 v 0.015 l -0.02,0.166 -0.002,0.003 -0.019,0.164 -0.003,0.01 -0.023,0.149 -0.004,0.02 -0.022,0.135 -0.007,0.029 -0.025,0.121 -0.002,0.014 -0.022,0.101 -0.01,0.045 -0.017,0.07 -0.025,0.09 -0.016,0.061 -0.023,0.072 -0.019,0.07 -0.025,0.072 -0.017,0.057 -0.029,0.077 -0.02,0.06 -0.034,0.082 -0.01,0.028 -0.017,0.039 -0.037,0.092 -0.014,0.03 -0.044,0.098 -0.01,0.021 -0.051,0.104 -0.008,0.012 -0.058,0.11 -0.002,0.004 -0.065,0.113 -0.002,0.004 -0.066,0.107 -0.004,0.011 -0.019,0.031 c -0.045,0.068 -0.088,0.135 -0.135,0.202 l -0.002,0.003 -0.081,0.113 -0.054,0.074 -0.032,0.041 -0.052,0.066 -0.039,0.048 -0.014,0.018 -0.074,0.092 -0.007,0.009 c -0.12,0.142 -0.247,0.288 -0.383,0.433 l -0.022,0.023 -0.019,0.022 -0.091,0.097 -0.015,0.013 -0.1,0.106 -0.007,0.007 -0.11,0.115 -0.003,0.001 -0.112,0.113 -0.01,0.01 -0.229,0.229 -0.027,0.026 -0.134,0.132 -0.091,0.09 -0.049,0.047 -0.083,0.082 -0.059,0.057 -0.076,0.075 -0.068,0.068 -0.07,0.068 -0.081,0.08 -0.062,0.059 -0.092,0.093 -0.052,0.051 -0.149,0.148 -0.119,0.119 -0.032,0.032 -0.134,0.134 -0.022,0.024 -0.147,0.15 -0.012,0.011 -0.164,0.167 -0.166,0.174 -0.012,0.011 -0.159,0.167 -0.024,0.024 -0.15,0.16 -0.586,10e-4 v 0.002 h -3.577 z"
         style="fill:#231f20;fill-opacity:1;fill-rule:evenodd;stroke:none"
         id="path925" /></g></g></svg>
